<svg width="2341" height="648" viewBox="0 0 2341 648" fill="none" xmlns="http://www.w3.org/2000/svg">
<path d="M871.3 232.9C869.7 247.5 863.4 259.4 852.4 268.6C841.6 277.6 824.9 282.1 802.3 282.1C750.9 282.1 725.2 255.7 725.2 202.9C725.2 150.5 750.8 124.3 802 124.3C813 124.3 822.7 126 831.1 129.4C839.7 132.6 846.6 137 851.8 142.6C857.2 148.2 861.4 155 864.4 163C867.6 170.8 869.6 179.1 870.4 187.9C871.4 196.5 871.5 205.8 870.7 215.8H758.5C760.3 243.6 774.5 257.5 801.1 257.5C821.5 257.5 833.7 249.3 837.7 232.9H871.3ZM837.7 189.7C837.9 178.1 834.9 168.5 828.7 160.9C822.5 153.1 812.6 149.2 799 149.2C774 149.2 760.6 162.9 758.8 190.3H837.7C837.9 190.3 837.9 190.2 837.7 190C837.9 189.8 837.9 189.7 837.7 189.7ZM1030.51 235.6C1030.51 248.2 1024.91 259.1 1013.71 268.3C1002.51 277.5 985.606 282.1 963.006 282.1C937.406 282.1 918.606 277.2 906.606 267.4C894.806 257.4 888.906 242.5 888.906 222.7H920.406C920.406 245.3 934.406 256.6 962.406 256.6C974.806 256.6 983.906 254.7 989.706 250.9C995.506 247.1 998.606 242.6 999.006 237.4C999.206 231.4 995.606 226.7 988.206 223.3C981.006 219.9 972.106 217.3 961.506 215.5C951.106 213.7 940.606 211.6 930.006 209.2C919.406 206.6 910.406 202.2 903.006 196C895.606 189.8 891.906 181.6 891.906 171.4C891.906 157 897.306 145.6 908.106 137.2C918.906 128.6 935.906 124.3 959.106 124.3C1004.11 124.3 1026.61 143.4 1026.61 181.6H996.606C996.006 170.8 992.806 162.7 987.006 157.3C981.206 151.9 971.606 149.2 958.206 149.2C946.206 149.2 937.406 151.1 931.806 154.9C926.406 158.5 923.706 163.1 923.706 168.7C923.706 174.1 927.306 178.3 934.506 181.3C941.906 184.3 950.806 186.8 961.206 188.8C971.806 190.6 982.306 192.9 992.706 195.7C1003.31 198.3 1012.21 203 1019.41 209.8C1026.81 216.4 1030.51 225 1030.51 235.6ZM1187.83 235.6C1187.83 248.2 1182.23 259.1 1171.03 268.3C1159.83 277.5 1142.93 282.1 1120.33 282.1C1094.73 282.1 1075.93 277.2 1063.93 267.4C1052.13 257.4 1046.23 242.5 1046.23 222.7H1077.73C1077.73 245.3 1091.73 256.6 1119.73 256.6C1132.13 256.6 1141.23 254.7 1147.03 250.9C1152.83 247.1 1155.93 242.6 1156.33 237.4C1156.53 231.4 1152.93 226.7 1145.53 223.3C1138.33 219.9 1129.43 217.3 1118.83 215.5C1108.43 213.7 1097.93 211.6 1087.33 209.2C1076.73 206.6 1067.73 202.2 1060.33 196C1052.93 189.8 1049.23 181.6 1049.23 171.4C1049.23 157 1054.63 145.6 1065.43 137.2C1076.23 128.6 1093.23 124.3 1116.43 124.3C1161.43 124.3 1183.93 143.4 1183.93 181.6H1153.93C1153.33 170.8 1150.13 162.7 1144.33 157.3C1138.53 151.9 1128.93 149.2 1115.53 149.2C1103.53 149.2 1094.73 151.1 1089.13 154.9C1083.73 158.5 1081.03 163.1 1081.03 168.7C1081.03 174.1 1084.63 178.3 1091.83 181.3C1099.23 184.3 1108.13 186.8 1118.53 188.8C1129.13 190.6 1139.63 192.9 1150.03 195.7C1160.63 198.3 1169.53 203 1176.73 209.8C1184.13 216.4 1187.83 225 1187.83 235.6ZM1352.35 232.9C1350.75 247.5 1344.45 259.4 1333.45 268.6C1322.65 277.6 1305.95 282.1 1283.35 282.1C1231.95 282.1 1206.25 255.7 1206.25 202.9C1206.25 150.5 1231.85 124.3 1283.05 124.3C1294.05 124.3 1303.75 126 1312.15 129.4C1320.75 132.6 1327.65 137 1332.85 142.6C1338.25 148.2 1342.45 155 1345.45 163C1348.65 170.8 1350.65 179.1 1351.45 187.9C1352.45 196.5 1352.55 205.8 1351.75 215.8H1239.55C1241.35 243.6 1255.55 257.5 1282.15 257.5C1302.55 257.5 1314.75 249.3 1318.75 232.9H1352.35ZM1318.75 189.7C1318.95 178.1 1315.95 168.5 1309.75 160.9C1303.55 153.1 1293.65 149.2 1280.05 149.2C1255.05 149.2 1241.65 162.9 1239.85 190.3H1318.75C1318.95 190.3 1318.95 190.2 1318.75 190C1318.95 189.8 1318.95 189.7 1318.75 189.7ZM1519.06 280H1487.26V194.5C1487.26 179.3 1484.76 168.3 1479.76 161.5C1474.96 154.5 1464.96 151 1449.76 151C1434.36 151 1423.86 154.5 1418.26 161.5C1412.86 168.5 1410.16 179.5 1410.16 194.5V280H1378.06V126.4H1395.46L1402.66 148C1405.66 141.6 1411.76 136.1 1420.96 131.5C1430.36 126.7 1442.96 124.3 1458.76 124.3C1470.96 124.3 1481.16 126 1489.36 129.4C1497.56 132.8 1503.76 137.9 1507.96 144.7C1512.16 151.5 1515.06 159 1516.66 167.2C1518.26 175.4 1519.06 185.4 1519.06 197.2V280ZM1686.88 219.7C1686.88 239.3 1681.18 254.6 1669.78 265.6C1658.38 276.6 1641.28 282.1 1618.48 282.1C1567.48 282.1 1541.98 255.8 1541.98 203.2C1541.98 192.2 1543.18 182.3 1545.58 173.5C1547.98 164.5 1551.88 156.2 1557.28 148.6C1562.88 141 1570.78 135.1 1580.98 130.9C1591.38 126.5 1603.68 124.3 1617.88 124.3C1640.68 124.3 1657.88 129.9 1669.48 141.1C1681.08 152.3 1686.88 167.8 1686.88 187.6H1654.18C1652.98 175.2 1649.48 165.9 1643.68 159.7C1638.08 153.5 1629.18 150.4 1616.98 150.4C1588.78 150.4 1574.68 167.9 1574.68 202.9C1574.68 219.1 1577.88 231.8 1584.28 241C1590.68 250 1601.78 254.5 1617.58 254.5C1629.78 254.5 1638.58 251.6 1643.98 245.8C1649.58 240 1652.98 231.3 1654.18 219.7H1686.88ZM1750.45 89.5C1750.45 96.7 1748.55 101.7 1744.75 104.5C1740.95 107.3 1735.25 108.7 1727.65 108.7C1719.85 108.7 1713.95 107.3 1709.95 104.5C1705.95 101.7 1703.95 96.7 1703.95 89.5C1703.95 82.1 1705.95 77 1709.95 74.2C1713.95 71.4 1719.85 70 1727.65 70C1735.25 70 1740.95 71.4 1744.75 74.2C1748.55 77 1750.45 82.1 1750.45 89.5ZM1743.25 280H1711.45V126.4H1743.25V280ZM1911.26 280H1893.86L1887.26 256.9C1883.26 263.7 1875.86 269.6 1865.06 274.6C1854.46 279.6 1841.76 282.1 1826.96 282.1C1809.56 282.1 1795.26 278.1 1784.06 270.1C1773.06 262.1 1767.56 250.4 1767.56 235C1767.56 221 1772.66 210.5 1782.86 203.5C1793.06 196.5 1809.26 191.9 1831.46 189.7L1879.76 184.9C1879.36 172.9 1876.26 164.1 1870.46 158.5C1864.66 152.7 1854.46 149.8 1839.86 149.8C1826.26 149.8 1816.76 152.4 1811.36 157.6C1806.16 162.6 1803.56 170.2 1803.56 180.4L1772.36 180.7C1772.36 162.9 1777.26 149.1 1787.06 139.3C1796.86 129.3 1814.36 124.3 1839.56 124.3C1851.76 124.3 1862.26 125.4 1871.06 127.6C1879.86 129.8 1886.76 132.7 1891.76 136.3C1896.96 139.9 1901.06 144.8 1904.06 151C1907.06 157 1908.96 163.2 1909.76 169.6C1910.76 176 1911.26 183.7 1911.26 192.7V280ZM1879.76 214V209.2L1836.26 214C1823.06 215.4 1813.76 217.7 1808.36 220.9C1803.16 224.1 1800.56 228.7 1800.56 234.7C1800.56 241.7 1803.46 247.2 1809.26 251.2C1815.26 255 1823.86 256.9 1835.06 256.9C1849.06 256.9 1859.96 253.1 1867.76 245.5C1875.76 237.9 1879.76 227.4 1879.76 214ZM1970.61 280H1938.51V67.9H1970.61V280Z" fill="#0050C3"/>
<path d="M871.6 496C870.2 510.8 864 522.8 853 532C842.2 541.2 825.3 545.8 802.3 545.8C787.3 545.8 774.5 543.7 763.9 539.5C753.5 535.3 745.6 529.3 740.2 521.5C734.8 513.5 731 505.1 728.8 496.3C726.6 487.5 725.5 477.5 725.5 466.3C725.5 414.5 751 388.6 802 388.6C848.4 388.6 871.6 414.1 871.6 465.1C871.6 469.9 871.5 473.7 871.3 476.5H749.2C751 510.9 768.5 528.1 801.7 528.1C829.1 528.1 844.6 517.4 848.2 496H871.6ZM848.2 458.5C848.2 442.7 844.3 430.1 836.5 420.7C828.9 411.3 816.8 406.6 800.2 406.6C767.4 406.6 750.4 423.9 749.2 458.5H848.2ZM1032.73 544H1010.23V460.3C1010.23 442.1 1007.23 428.8 1001.23 420.4C995.233 412 983.033 407.8 964.633 407.8C946.033 407.8 933.333 412 926.533 420.4C919.933 428.8 916.633 442.1 916.633 460.3V544H894.133V390.4H904.633L911.233 418.3C918.633 398.5 938.433 388.6 970.633 388.6C983.433 388.6 993.933 390.3 1002.13 393.7C1010.53 396.9 1016.93 402 1021.33 409C1025.73 415.8 1028.73 423.4 1030.33 431.8C1031.93 440 1032.73 450.1 1032.73 462.1V544ZM1134.7 409H1086.1V544H1063.9V409H1043.2V395.2L1063.9 390.7V376C1063.9 358 1069.4 345.5 1080.4 338.5C1091.6 331.5 1109.7 328.8 1134.7 330.4V349C1116.3 348 1103.6 349.6 1096.6 353.8C1089.8 357.8 1086.4 365.3 1086.4 376.3V390.4H1134.7V409ZM1278.83 496C1277.43 510.8 1271.23 522.8 1260.23 532C1249.43 541.2 1232.53 545.8 1209.53 545.8C1194.53 545.8 1181.73 543.7 1171.13 539.5C1160.73 535.3 1152.83 529.3 1147.43 521.5C1142.03 513.5 1138.23 505.1 1136.03 496.3C1133.83 487.5 1132.73 477.5 1132.73 466.3C1132.73 414.5 1158.23 388.6 1209.23 388.6C1255.63 388.6 1278.83 414.1 1278.83 465.1C1278.83 469.9 1278.73 473.7 1278.53 476.5H1156.43C1158.23 510.9 1175.73 528.1 1208.93 528.1C1236.33 528.1 1251.83 517.4 1255.43 496H1278.83ZM1255.43 458.5C1255.43 442.7 1251.53 430.1 1243.73 420.7C1236.13 411.3 1224.03 406.6 1207.43 406.6C1174.63 406.6 1157.63 423.9 1156.43 458.5H1255.43ZM1376.96 408.4C1356.16 407.4 1342.06 411.1 1334.66 419.5C1327.46 427.9 1323.86 441.3 1323.86 459.7V544H1301.36V390.4H1311.56L1318.46 416.8C1326.06 397 1345.56 387.4 1376.96 388V408.4ZM1606.97 544H1583.87V453.7C1583.87 438.3 1581.37 426.9 1576.37 419.5C1571.37 411.9 1562.07 408.1 1548.47 408.1C1534.47 408.1 1524.77 411.9 1519.37 419.5C1513.97 427.1 1511.27 438.5 1511.27 453.7V544H1488.47V453.7C1488.47 438.5 1485.87 427.1 1480.67 419.5C1475.67 411.9 1466.27 408.1 1452.47 408.1C1438.67 408.1 1428.97 411.9 1423.37 419.5C1417.97 427.1 1415.27 438.5 1415.27 453.7V544H1392.77V390.4H1402.97L1409.87 414.4C1412.87 407 1418.47 400.9 1426.67 396.1C1434.87 391.1 1445.67 388.6 1459.07 388.6C1483.67 388.6 1498.97 398.6 1504.97 418.6C1507.37 409.8 1512.67 402.6 1520.87 397C1529.27 391.4 1540.67 388.6 1555.07 388.6C1574.67 388.6 1588.17 394.4 1595.57 406C1603.17 417.4 1606.97 433.7 1606.97 454.9V544ZM1770.36 544H1757.76L1752.96 512.8C1748.56 522.6 1740.56 530.6 1728.96 536.8C1717.36 542.8 1703.76 545.8 1688.16 545.8C1670.76 545.8 1656.56 542 1645.56 534.4C1634.56 526.6 1629.06 515.2 1629.06 500.2C1629.06 486.6 1633.96 476.4 1643.76 469.6C1653.76 462.8 1669.86 458.1 1692.06 455.5L1747.86 448.9C1747.66 434.1 1744.16 423.4 1737.36 416.8C1730.76 410 1718.26 406.6 1699.86 406.6C1683.26 406.6 1671.66 409.7 1665.06 415.9C1658.66 422.1 1655.46 431.4 1655.46 443.8H1633.26C1633.26 426.2 1638.16 412.6 1647.96 403C1657.76 393.4 1674.96 388.6 1699.56 388.6C1714.56 388.6 1726.86 390.1 1736.46 393.1C1746.26 396.1 1753.46 400.8 1758.06 407.2C1762.86 413.6 1766.06 420.5 1767.66 427.9C1769.46 435.3 1770.36 444.6 1770.36 455.8V544ZM1747.86 476.5V466L1695.36 473.2C1679.56 475.4 1668.46 478.5 1662.06 482.5C1655.66 486.3 1652.46 492.1 1652.46 499.9C1652.46 508.9 1655.96 515.8 1662.96 520.6C1670.16 525.4 1680.16 527.8 1692.96 527.8C1708.96 527.8 1722.06 523.4 1732.26 514.6C1742.66 505.6 1747.86 492.9 1747.86 476.5ZM1938.63 564.4C1938.63 577 1932.83 587.5 1921.23 595.9C1909.83 604.5 1890.93 608.8 1864.53 608.8C1836.13 608.8 1816.33 603.9 1805.13 594.1C1793.93 584.5 1788.33 570.3 1788.33 551.5H1811.13C1811.13 564.5 1814.93 574.2 1822.53 580.6C1830.13 587.2 1844.13 590.5 1864.53 590.5C1898.33 590.5 1915.23 582.1 1915.23 565.3C1915.23 558.5 1910.93 553.2 1902.33 549.4C1893.93 545.6 1883.63 542.9 1871.43 541.3C1859.23 539.5 1846.93 537.7 1834.53 535.9C1822.33 534.1 1811.93 531 1803.33 526.6C1794.93 522 1790.73 515.8 1790.73 508C1790.73 497.6 1798.93 490.5 1815.33 486.7C1800.93 478.5 1793.73 464.6 1793.73 445C1793.73 427.4 1798.93 413.9 1809.33 404.5C1819.73 395.1 1838.53 390.4 1865.73 390.4H1932.63V401.8L1907.13 406C1922.13 411.6 1929.63 424.7 1929.63 445.3C1929.63 463.3 1924.73 477.1 1914.93 486.7C1905.13 496.1 1887.33 500.8 1861.53 500.8C1847.13 500.8 1836.73 499.6 1830.33 497.2C1819.13 498.4 1813.53 501.6 1813.53 506.8C1813.53 511 1817.83 514.2 1826.43 516.4C1835.03 518.6 1845.43 520.4 1857.63 521.8C1869.83 523 1882.03 524.8 1894.23 527.2C1906.63 529.4 1917.13 533.6 1925.73 539.8C1934.33 546 1938.63 554.2 1938.63 564.4ZM1906.23 444.7C1906.23 432.9 1903.13 424 1896.93 418C1890.73 411.8 1878.93 408.7 1861.53 408.7C1844.53 408.7 1832.83 411.7 1826.43 417.7C1820.03 423.7 1816.83 432.7 1816.83 444.7C1816.83 457.3 1819.93 467 1826.13 473.8C1832.53 480.4 1844.43 483.7 1861.83 483.7C1878.63 483.7 1890.23 480.4 1896.63 473.8C1903.03 467 1906.23 457.3 1906.23 444.7ZM2090.64 496C2089.24 510.8 2083.04 522.8 2072.04 532C2061.24 541.2 2044.34 545.8 2021.34 545.8C2006.34 545.8 1993.54 543.7 1982.94 539.5C1972.54 535.3 1964.64 529.3 1959.24 521.5C1953.84 513.5 1950.04 505.1 1947.84 496.3C1945.64 487.5 1944.54 477.5 1944.54 466.3C1944.54 414.5 1970.04 388.6 2021.04 388.6C2067.44 388.6 2090.64 414.1 2090.64 465.1C2090.64 469.9 2090.54 473.7 2090.34 476.5H1968.24C1970.04 510.9 1987.54 528.1 2020.74 528.1C2048.14 528.1 2063.64 517.4 2067.24 496H2090.64ZM2067.24 458.5C2067.24 442.7 2063.34 430.1 2055.54 420.7C2047.94 411.3 2035.84 406.6 2019.24 406.6C1986.44 406.6 1969.44 423.9 1968.24 458.5H2067.24ZM2327.38 544H2304.28V453.7C2304.28 438.3 2301.78 426.9 2296.78 419.5C2291.78 411.9 2282.48 408.1 2268.88 408.1C2254.88 408.1 2245.18 411.9 2239.78 419.5C2234.38 427.1 2231.68 438.5 2231.68 453.7V544H2208.88V453.7C2208.88 438.5 2206.28 427.1 2201.08 419.5C2196.08 411.9 2186.68 408.1 2172.88 408.1C2159.08 408.1 2149.38 411.9 2143.78 419.5C2138.38 427.1 2135.68 438.5 2135.68 453.7V544H2113.18V390.4H2123.38L2130.28 414.4C2133.28 407 2138.88 400.9 2147.08 396.1C2155.28 391.1 2166.08 388.6 2179.48 388.6C2204.08 388.6 2219.38 398.6 2225.38 418.6C2227.78 409.8 2233.08 402.6 2241.28 397C2249.68 391.4 2261.08 388.6 2275.48 388.6C2295.08 388.6 2308.58 394.4 2315.98 406C2323.58 417.4 2327.38 433.7 2327.38 454.9V544Z" fill="#0050C3"/>
<path fill-rule="evenodd" clip-rule="evenodd" d="M292.875 1.01253C292.875 1.45628 294.473 1.89997 296.425 1.89997C298.378 1.89997 299.975 2.255 299.975 2.7875C299.975 3.23125 301.218 3.67503 302.638 3.67503C304.146 3.67503 305.3 4.02997 305.3 4.56247C305.3 5.00622 306.099 5.45 307.075 5.45C308.051 5.45 308.85 5.80503 308.85 6.33753C308.85 6.78128 309.56 7.22497 310.447 7.22497C311.335 7.22497 312.578 8.02378 313.288 9.00003C313.998 9.97628 315.151 10.775 315.95 10.775C316.749 10.775 317.903 11.5737 318.613 12.55C319.323 13.5262 320.476 14.325 321.098 14.325C321.807 14.325 323.494 15.4788 324.825 16.9875C326.156 18.4075 327.754 19.65 328.375 19.65C328.996 19.65 330.594 20.8038 331.925 22.3125C333.256 23.7325 334.854 24.975 335.475 24.975C336.096 24.975 337.694 26.1288 339.025 27.6375C340.356 29.0575 341.954 30.3 342.575 30.3C343.196 30.3 344.794 31.4538 346.125 32.9625C347.456 34.3825 349.054 35.625 349.675 35.625C350.296 35.625 351.894 36.7788 353.225 38.2875C354.556 39.7075 356.154 40.95 356.775 40.95C357.396 40.95 358.994 42.1038 360.325 43.6125C361.656 45.0325 363.431 46.275 364.23 46.275C365.473 46.275 365.65 44.4112 365.65 31.1875V16.1H426H486.35V75.1187V134.138L513.862 161.65C529.039 176.737 541.375 189.606 541.375 190.139C541.375 190.583 543.416 192.979 545.812 195.375C548.297 197.771 550.25 200.256 550.25 200.877C550.25 201.587 551.049 202.653 552.025 203.363C553.001 204.073 553.8 205.226 553.8 206.025C553.8 206.824 554.599 207.978 555.575 208.688C556.551 209.398 557.35 210.64 557.35 211.528C557.35 212.415 557.794 213.125 558.238 213.125C558.77 213.125 559.125 213.924 559.125 214.9C559.125 215.876 559.569 216.675 560.013 216.675C560.545 216.675 560.9 217.829 560.9 219.338C560.9 220.758 561.344 222 561.787 222C562.32 222 562.675 222.799 562.675 223.775C562.675 224.751 563.119 225.55 563.563 225.55C564.095 225.55 564.45 227.148 564.45 229.1C564.45 231.053 564.894 232.65 565.338 232.65C565.87 232.65 566.225 234.247 566.225 236.2C566.225 238.152 566.669 239.75 567.112 239.75C567.734 239.75 568 283.504 568 369.325C568 455.146 567.734 498.9 567.112 498.9C566.669 498.9 566.225 500.054 566.225 501.563C566.225 502.983 565.87 504.225 565.338 504.225C564.894 504.225 564.45 505.379 564.45 506.888C564.45 508.308 564.095 509.55 563.563 509.55C563.119 509.55 562.675 510.349 562.675 511.325C562.675 512.301 562.32 513.1 561.787 513.1C561.344 513.1 560.9 513.899 560.9 514.875C560.9 515.851 560.545 516.65 560.013 516.65C559.569 516.65 559.125 517.271 559.125 518.07C559.125 518.869 557.971 520.644 556.462 521.975C555.042 523.306 553.8 524.904 553.8 525.436C553.8 526.768 549.718 530.85 548.386 530.85C547.854 530.85 546.256 532.004 544.925 533.513C543.594 534.933 541.819 536.175 541.02 536.175C540.221 536.175 539.6 536.53 539.6 537.063C539.6 537.506 538.801 537.95 537.825 537.95C536.849 537.95 536.05 538.305 536.05 538.838C536.05 539.281 535.34 539.725 534.453 539.725C533.565 539.725 532.323 540.524 531.613 541.5C530.903 542.565 529.305 543.275 527.885 543.275C526.554 543.275 525.4 543.63 525.4 544.162C525.4 544.606 523.802 545.05 521.85 545.05C519.897 545.05 518.3 545.405 518.3 545.938C518.3 546.559 500.639 546.825 467.003 546.825C416.77 546.825 415.705 546.825 414.463 545.05C413.753 544.074 412.688 543.275 411.977 543.275C410.38 543.275 408.25 541.056 408.25 539.37C408.25 538.571 407.895 537.95 407.362 537.95C406.919 537.95 406.475 537.151 406.475 536.175C406.475 535.199 406.12 534.4 405.587 534.4C405.055 534.4 404.7 531.471 404.7 527.3C404.7 523.129 405.055 520.2 405.587 520.2C406.12 520.2 406.475 519.579 406.475 518.869C406.475 516.561 414.107 509.55 416.681 509.55C417.924 509.55 418.9 509.106 418.9 508.662C418.9 508.041 435.141 507.775 465.937 507.775C496.734 507.775 512.975 507.509 512.975 506.888C512.975 506.355 513.774 506 514.75 506C515.726 506 516.525 505.556 516.525 505.112C516.525 504.58 517.146 504.225 517.856 504.225C520.164 504.225 527.175 496.592 527.175 494.019C527.175 492.776 527.619 491.8 528.062 491.8C528.684 491.8 528.95 450.709 528.95 370.212C528.95 289.716 528.684 248.625 528.062 248.625C527.619 248.625 527.175 246.584 527.175 244.187C527.175 241.702 526.82 239.75 526.288 239.75C525.844 239.75 525.4 238.508 525.4 237.088C525.4 235.579 525.045 234.425 524.513 234.425C524.069 234.425 523.625 233.715 523.625 232.827C523.625 231.94 522.826 230.698 521.85 229.988C520.874 229.278 520.075 228.035 520.075 227.147C520.075 226.26 519.72 225.55 519.188 225.55C518.744 225.55 518.3 224.929 518.3 224.219C518.3 223.42 511.91 216.498 504.1 208.688C496.29 200.878 489.9 193.955 489.9 193.156C489.9 192.446 489.279 191.825 488.569 191.825C487.77 191.825 485.818 190.405 484.131 188.719C482.445 187.033 481.025 185.08 481.025 184.281C481.025 183.571 480.226 182.95 479.25 182.95C478.274 182.95 477.475 182.329 477.475 181.619C477.475 180.82 470.73 173.454 462.388 165.2L447.3 150.113V103.519V56.925H426H404.7V89.7625C404.7 111.062 404.345 122.6 403.813 122.6C403.369 122.6 402.925 122.156 402.925 121.712C402.925 121.18 402.215 120.825 401.327 120.825C400.44 120.825 399.198 120.026 398.488 119.05C397.778 118.074 396.624 117.275 396.003 117.275C395.292 117.275 393.606 116.033 392.275 114.613C390.944 113.104 389.169 111.95 388.37 111.95C387.571 111.95 386.95 111.506 386.95 111.062C386.95 110.53 386.329 110.175 385.53 110.175C384.731 110.175 382.956 108.933 381.625 107.513C380.294 106.004 378.608 104.85 377.898 104.85C377.276 104.85 376.122 104.051 375.412 103.075C374.702 102.099 373.549 101.3 372.75 101.3C371.951 101.3 370.797 100.501 370.087 99.525C369.377 98.5488 368.224 97.75 367.425 97.75C366.626 97.75 365.472 96.9513 364.762 95.975C364.052 94.9988 362.899 94.2 362.1 94.2C361.301 94.2 360.147 93.4012 359.437 92.425C358.727 91.4487 357.574 90.65 356.953 90.65C356.243 90.65 354.556 89.4075 353.225 87.9875C351.894 86.4788 350.296 85.325 349.675 85.325C349.054 85.325 347.456 84.0825 346.125 82.6625C344.794 81.1538 343.196 80 342.575 80C341.954 80 340.356 78.7575 339.025 77.3375C337.694 75.8288 336.096 74.675 335.475 74.675C334.854 74.675 333.256 73.4325 331.925 72.0125C330.594 70.5038 328.996 69.35 328.375 69.35C327.842 69.35 325.801 67.7525 323.938 65.8C322.074 63.8475 319.944 62.25 319.323 62.25C318.701 62.25 317.547 61.4512 316.837 60.475C316.127 59.4987 314.974 58.7 314.353 58.7C313.643 58.7 311.956 57.4575 310.625 56.0375C309.294 54.5288 307.519 53.375 306.72 53.375C305.921 53.375 305.3 52.665 305.3 51.6C305.3 50.535 304.679 49.825 303.88 49.825C303.081 49.825 301.306 48.5825 299.975 47.1625C298.644 45.6537 296.957 44.5 296.247 44.5C295.626 44.5 294.473 43.7013 293.763 42.725C293.052 41.66 291.455 40.95 290.035 40.95C288.704 40.95 287.55 40.5063 287.55 40.0625C287.55 39.53 285.598 39.175 283.112 39.175C280.716 39.175 278.675 39.53 278.675 40.0625C278.675 40.5063 277.521 40.95 276.013 40.95C274.593 40.95 273.35 41.305 273.35 41.8375C273.35 42.2812 272.64 42.725 271.753 42.725C270.865 42.725 269.622 43.5237 268.912 44.5C268.202 45.4762 267.138 46.275 266.428 46.275C265.806 46.275 263.321 48.2275 260.925 50.7125C258.529 53.1088 256.132 55.15 255.6 55.15C255.067 55.15 253.026 56.7475 251.163 58.7C249.299 60.6525 247.258 62.25 246.725 62.25C246.193 62.25 244.151 63.8475 242.287 65.8C240.424 67.7525 238.382 69.35 237.85 69.35C237.318 69.35 234.921 71.3025 232.525 73.7875C230.129 76.1837 227.732 78.225 227.2 78.225C226.667 78.225 224.626 79.8225 222.763 81.775C220.899 83.7275 218.857 85.325 218.325 85.325C217.792 85.325 215.396 87.2775 213 89.7625C210.604 92.1587 208.207 94.2 207.675 94.2C207.142 94.2 204.746 96.1525 202.35 98.6375C199.954 101.034 197.557 103.075 197.025 103.075C196.492 103.075 194.451 104.673 192.587 106.625C190.724 108.578 188.683 110.175 188.15 110.175C187.618 110.175 185.576 111.772 183.712 113.725C181.849 115.677 179.807 117.275 179.275 117.275C178.742 117.275 176.346 119.227 173.95 121.712C171.554 124.109 169.158 126.15 168.625 126.15C168.092 126.15 165.696 128.103 163.3 130.587C160.904 132.984 158.507 135.025 157.975 135.025C157.354 135.025 155.756 136.179 154.425 137.687C153.094 139.107 151.496 140.35 150.875 140.35C150.343 140.35 147.946 142.303 145.55 144.788C143.154 147.184 140.758 149.225 140.225 149.225C139.693 149.225 137.296 151.177 134.9 153.662C132.504 156.059 130.108 158.1 129.575 158.1C129.043 158.1 126.646 160.053 124.25 162.538C121.854 164.934 119.458 166.975 118.925 166.975C118.393 166.975 115.996 168.928 113.6 171.413C111.204 173.809 108.808 175.85 108.275 175.85C107.743 175.85 105.701 177.448 103.837 179.4C101.974 181.353 99.9325 182.95 99.4 182.95C98.8675 182.95 96.4712 184.903 94.075 187.388C91.6787 189.784 89.2825 191.825 88.75 191.825C88.1287 191.825 86.5312 192.979 85.2 194.488C83.8687 195.908 82.2712 197.15 81.6499 197.15C81.1174 197.15 78.7212 199.102 76.3249 201.587C73.9287 203.984 71.5324 206.025 70.9999 206.025C70.4674 206.025 68.0712 207.978 65.6749 210.463C63.2787 212.859 60.8824 214.9 60.3499 214.9C59.0187 214.9 47.925 226.171 47.925 227.591C47.925 228.212 47.1262 229.278 46.15 229.988C45.1737 230.698 44.3749 231.94 44.3749 232.827C44.3749 233.715 44.02 234.425 43.4875 234.425C43.0437 234.425 42.6 235.579 42.6 237.088C42.6 238.508 42.2449 239.75 41.7124 239.75C41.2687 239.75 40.825 241.702 40.825 244.187C40.825 246.584 40.47 248.625 39.9375 248.625C39.3162 248.625 39.0499 283.237 39.0499 350.687C39.0499 418.137 39.3162 452.75 39.9375 452.75C40.47 452.75 40.825 460.471 40.825 474.05C40.825 487.629 41.1799 495.35 41.7124 495.35C42.2449 495.35 42.6 495.971 42.6 496.681C42.6 497.48 44.375 499.876 46.5937 502.006C48.7237 504.225 51.12 506 51.9187 506C52.6287 506 53.25 506.355 53.25 506.888C53.25 507.331 54.8475 507.775 56.7113 507.775C58.6638 507.775 60.4387 508.219 60.6162 508.84C60.9712 509.728 61.3262 509.639 62.125 508.662C62.9237 507.686 63.2787 507.597 63.6337 508.396C63.8999 509.284 67.5387 509.55 77.3012 509.55H90.525V501.563C90.525 496.859 90.88 493.575 91.4125 493.575C91.945 493.575 92.2999 490.912 92.2999 487.363C92.2999 483.812 92.655 481.15 93.1875 481.15C93.72 481.15 94.075 478.488 94.075 474.938C94.075 471.388 94.4299 468.725 94.9624 468.725C95.4949 468.725 95.85 466.684 95.85 464.288C95.85 461.803 96.2937 459.85 96.7375 459.85C97.27 459.85 97.6249 458.253 97.6249 456.3C97.6249 454.348 98.0687 452.75 98.5125 452.75C99.045 452.75 99.4 450.709 99.4 448.313C99.4 445.828 99.8437 443.875 100.287 443.875C100.82 443.875 101.175 442.632 101.175 441.212C101.175 439.704 101.619 438.55 102.062 438.55C102.595 438.55 102.95 437.307 102.95 435.887C102.95 434.379 103.394 433.225 103.837 433.225C104.37 433.225 104.725 431.982 104.725 430.562C104.725 429.054 105.169 427.9 105.613 427.9C106.145 427.9 106.5 426.303 106.5 424.35C106.5 422.398 106.944 420.8 107.387 420.8C107.92 420.8 108.275 420.001 108.275 419.025C108.275 418.049 108.719 417.25 109.162 417.25C109.695 417.25 110.05 416.451 110.05 415.475C110.05 414.499 110.494 413.7 110.938 413.7C111.47 413.7 111.825 412.901 111.825 411.925C111.825 410.949 112.269 410.15 112.712 410.15C113.245 410.15 113.6 408.907 113.6 407.488C113.6 405.979 114.044 404.825 114.487 404.825C115.02 404.825 115.375 404.115 115.375 403.227C115.375 402.34 116.174 401.098 117.15 400.388C118.126 399.678 118.925 398.435 118.925 397.547C118.925 396.66 119.369 395.95 119.812 395.95C120.345 395.95 120.7 395.24 120.7 394.353C120.7 393.465 121.499 392.222 122.475 391.513C123.451 390.803 124.25 389.649 124.25 389.028C124.25 388.318 125.493 386.631 126.913 385.3C128.421 383.969 129.575 382.371 129.575 381.839C129.575 380.507 146.082 364 147.414 364C147.946 364 149.544 362.757 150.875 361.337C152.206 359.829 153.893 358.675 154.603 358.675C155.224 358.675 156.377 357.876 157.087 356.9C157.797 355.924 158.951 355.125 159.75 355.125C160.549 355.125 161.702 354.326 162.412 353.35C163.122 352.374 164.365 351.575 165.253 351.575C166.14 351.575 166.85 351.131 166.85 350.687C166.85 350.155 167.649 349.8 168.625 349.8C169.601 349.8 170.4 349.356 170.4 348.912C170.4 348.38 171.199 348.025 172.175 348.025C173.151 348.025 173.95 347.581 173.95 347.138C173.95 346.605 174.749 346.25 175.725 346.25C176.701 346.25 177.5 345.806 177.5 345.362C177.5 344.83 178.743 344.475 180.163 344.475C181.671 344.475 182.825 344.031 182.825 343.587C182.825 343.055 183.624 342.7 184.6 342.7C185.576 342.7 186.375 342.256 186.375 341.813C186.375 341.28 187.617 340.925 189.037 340.925C190.546 340.925 191.7 340.481 191.7 340.037C191.7 339.505 193.298 339.15 195.25 339.15C197.202 339.15 198.8 338.706 198.8 338.263C198.8 337.73 200.841 337.375 203.238 337.375C205.723 337.375 207.675 336.931 207.675 336.488C207.675 335.955 212.734 335.6 220.987 335.6C229.241 335.6 234.3 335.955 234.3 336.488C234.3 337.02 236.696 337.375 239.625 337.375C242.554 337.375 244.95 337.73 244.95 338.263C244.95 338.706 246.548 339.15 248.5 339.15C250.452 339.15 252.05 339.505 252.05 340.037C252.05 340.481 253.647 340.925 255.6 340.925C257.552 340.925 259.15 341.28 259.15 341.813C259.15 342.256 260.392 342.7 261.812 342.7C263.321 342.7 264.475 343.055 264.475 343.587C264.475 344.031 265.274 344.475 266.25 344.475C267.226 344.475 268.025 344.83 268.025 345.362C268.025 345.806 269.268 346.25 270.688 346.25C272.196 346.25 273.35 346.605 273.35 347.138C273.35 347.581 274.149 348.025 275.125 348.025C276.101 348.025 276.9 348.38 276.9 348.912C276.9 349.356 277.61 349.8 278.497 349.8C279.385 349.8 280.628 350.599 281.338 351.575C282.048 352.551 283.201 353.35 284 353.35C284.799 353.35 285.953 354.149 286.663 355.125C287.373 356.101 288.615 356.9 289.502 356.9C290.479 356.9 291.1 357.521 291.1 358.675C291.1 359.651 291.721 360.45 292.431 360.45C294.029 360.45 301.75 367.905 301.75 369.414C301.75 369.946 303.348 371.899 305.3 373.763C307.253 375.626 308.85 377.845 308.85 378.555C308.85 379.354 309.294 379.975 309.738 379.975C310.27 379.975 310.625 380.685 310.625 381.573C310.625 382.46 311.424 383.703 312.4 384.413C313.465 385.123 314.175 386.72 314.175 388.14C314.175 389.471 314.619 390.625 315.062 390.625C315.595 390.625 315.95 391.424 315.95 392.4C315.95 393.376 316.394 394.175 316.837 394.175C317.37 394.175 317.725 394.974 317.725 395.95C317.725 396.926 318.169 397.725 318.613 397.725C319.145 397.725 319.5 398.879 319.5 400.388C319.5 401.808 319.944 403.05 320.388 403.05C320.92 403.05 321.275 403.849 321.275 404.825C321.275 405.801 321.719 406.6 322.162 406.6C322.695 406.6 323.05 407.754 323.05 409.262C323.05 410.682 323.494 411.925 323.938 411.925C324.47 411.925 324.825 413.523 324.825 415.475C324.825 417.428 325.269 419.025 325.712 419.025C326.245 419.025 326.6 424.35 326.6 433.225C326.6 442.1 326.245 447.425 325.712 447.425C325.18 447.425 324.825 449.821 324.825 452.75C324.825 455.679 324.47 458.075 323.938 458.075C323.494 458.075 323.05 459.229 323.05 460.738C323.05 462.157 322.695 463.4 322.162 463.4C321.719 463.4 321.275 464.199 321.275 465.175C321.275 466.151 320.92 466.95 320.388 466.95C319.944 466.95 319.5 468.547 319.5 470.5C319.5 472.452 319.145 474.05 318.613 474.05C318.169 474.05 317.725 474.76 317.725 475.648C317.725 476.535 316.926 477.777 315.95 478.487C314.974 479.197 314.175 480.44 314.175 481.328C314.175 482.215 313.82 482.925 313.288 482.925C312.844 482.925 312.4 483.546 312.4 484.345C312.4 485.144 311.246 486.919 309.738 488.25C308.318 489.581 307.075 491.179 307.075 491.711C307.075 493.131 290.479 509.55 289.059 509.55C288.438 509.55 287.373 510.349 286.663 511.325C285.953 512.301 284.799 513.1 284 513.1C283.201 513.1 282.048 513.899 281.338 514.875C280.628 515.851 279.385 516.65 278.497 516.65C277.61 516.65 276.9 517.005 276.9 517.537C276.9 517.981 276.19 518.425 275.302 518.425C274.415 518.425 273.173 519.224 272.462 520.2C271.753 521.265 270.155 521.975 268.735 521.975C267.404 521.975 266.25 522.33 266.25 522.863C266.25 523.306 265.451 523.75 264.475 523.75C263.499 523.75 262.7 524.105 262.7 524.637C262.7 525.081 261.901 525.525 260.925 525.525C259.949 525.525 259.15 525.88 259.15 526.413C259.15 526.856 257.996 527.3 256.487 527.3C255.068 527.3 253.825 527.655 253.825 528.188C253.825 528.631 252.671 529.075 251.163 529.075C249.742 529.075 248.5 529.43 248.5 529.962C248.5 530.406 247.701 530.85 246.725 530.85C245.749 530.85 244.95 531.205 244.95 531.738C244.95 532.181 243.796 532.625 242.287 532.625C240.867 532.625 239.625 532.98 239.625 533.513C239.625 533.956 238.471 534.4 236.962 534.4C235.542 534.4 234.3 534.755 234.3 535.287C234.3 535.731 232.703 536.175 230.75 536.175C228.798 536.175 227.2 536.53 227.2 537.063C227.2 537.506 225.602 537.95 223.65 537.95C221.697 537.95 220.1 538.305 220.1 538.838C220.1 539.281 218.946 539.725 217.438 539.725C216.018 539.725 214.775 540.08 214.775 540.613C214.775 541.056 212.822 541.5 210.337 541.5C207.941 541.5 205.9 541.855 205.9 542.388C205.9 542.831 204.302 543.275 202.35 543.275C200.397 543.275 198.8 543.63 198.8 544.162C198.8 544.695 196.404 545.05 193.475 545.05C190.546 545.05 188.15 545.405 188.15 545.938C188.15 546.47 185.754 546.825 182.825 546.825C179.896 546.825 177.5 547.18 177.5 547.713C177.5 548.245 168.625 548.6 152.65 548.6H127.8V560.138C127.8 567.238 128.155 571.675 128.688 571.675C129.22 571.675 129.575 573.272 129.575 575.225C129.575 577.178 130.019 578.775 130.462 578.775C130.995 578.775 131.35 579.574 131.35 580.55C131.35 581.526 131.794 582.325 132.238 582.325C132.77 582.325 133.125 583.124 133.125 584.1C133.125 585.076 133.569 585.875 134.012 585.875C134.545 585.875 134.9 586.496 134.9 587.206C134.9 588.981 145.994 600.075 147.769 600.075C148.479 600.075 149.1 600.43 149.1 600.963C149.1 601.406 149.899 601.85 150.875 601.85C151.851 601.85 152.65 602.205 152.65 602.738C152.65 603.181 153.893 603.625 155.312 603.625C156.821 603.625 157.975 603.98 157.975 604.512C157.975 604.956 160.016 605.4 162.412 605.4C164.897 605.4 166.85 605.755 166.85 606.288C166.85 606.82 170.4 607.175 175.725 607.175C181.05 607.175 184.6 607.53 184.6 608.063C184.6 608.595 186.996 608.95 189.925 608.95C192.854 608.95 195.25 608.595 195.25 608.063C195.25 607.53 199.954 607.175 207.675 607.175C215.396 607.175 220.1 606.82 220.1 606.288C220.1 605.755 222.141 605.4 224.538 605.4C227.022 605.4 228.975 604.956 228.975 604.512C228.975 603.98 231.371 603.625 234.3 603.625C237.229 603.625 239.625 603.27 239.625 602.738C239.625 602.205 241.223 601.85 243.175 601.85C245.128 601.85 246.725 601.406 246.725 600.963C246.725 600.43 247.79 600.075 249.033 600.075C253.204 600.075 253.825 598.477 253.825 587.295C253.825 580.994 254.18 577 254.713 577C255.245 577 255.6 575.403 255.6 573.45C255.6 571.498 256.044 569.9 256.487 569.9C257.02 569.9 257.375 569.101 257.375 568.125C257.375 567.149 257.819 566.35 258.262 566.35C258.795 566.35 259.15 565.551 259.15 564.575C259.15 563.599 259.594 562.8 260.038 562.8C260.57 562.8 260.925 562.001 260.925 561.025C260.925 560.049 261.369 559.25 261.812 559.25C262.345 559.25 262.7 558.451 262.7 557.475C262.7 556.499 263.144 555.7 263.587 555.7C264.12 555.7 264.475 555.079 264.475 554.369C264.475 552.683 275.48 541.5 277.166 541.5C277.787 541.5 278.852 540.701 279.562 539.725C280.272 538.749 281.515 537.95 282.403 537.95C283.29 537.95 284 537.506 284 537.063C284 536.53 284.799 536.175 285.775 536.175C286.751 536.175 287.55 535.731 287.55 535.287C287.55 534.755 288.349 534.4 289.325 534.4C290.301 534.4 291.1 533.956 291.1 533.513C291.1 532.98 292.698 532.625 294.65 532.625C296.603 532.625 298.2 532.181 298.2 531.738C298.2 531.205 303.259 530.85 311.512 530.85C319.766 530.85 324.825 531.205 324.825 531.738C324.825 532.181 326.067 532.625 327.487 532.625C328.996 532.625 330.15 532.98 330.15 533.513C330.15 533.956 330.949 534.4 331.925 534.4C332.901 534.4 333.7 534.755 333.7 535.287C333.7 535.731 334.499 536.175 335.475 536.175C336.451 536.175 337.25 536.53 337.25 537.063C337.25 537.506 338.049 537.95 339.025 537.95C340.001 537.95 340.8 538.305 340.8 538.838C340.8 539.281 341.421 539.725 342.131 539.725C343.817 539.725 358.55 554.28 358.55 555.966C358.55 556.587 359.349 557.653 360.325 558.363C361.301 559.073 362.1 560.315 362.1 561.203C362.1 562.09 362.544 562.8 362.988 562.8C363.52 562.8 363.875 563.599 363.875 564.575C363.875 565.551 364.319 566.35 364.762 566.35C365.295 566.35 365.65 567.947 365.65 569.9C365.65 571.852 366.094 573.45 366.538 573.45C367.07 573.45 367.425 578.775 367.425 587.65C367.425 596.525 367.07 601.85 366.538 601.85C366.094 601.85 365.65 603.004 365.65 604.512C365.65 605.933 365.295 607.175 364.762 607.175C364.319 607.175 363.875 607.974 363.875 608.95C363.875 609.926 363.52 610.725 362.988 610.725C362.544 610.725 362.1 611.524 362.1 612.5C362.1 613.476 361.745 614.275 361.213 614.275C360.769 614.275 360.325 615.074 360.325 616.05C360.325 617.026 359.97 617.825 359.437 617.825C358.994 617.825 358.55 618.446 358.55 619.156C358.55 620.931 343.906 635.575 342.131 635.575C341.421 635.575 340.8 635.93 340.8 636.462C340.8 636.906 340.001 637.35 339.025 637.35C338.049 637.35 337.25 637.705 337.25 638.238C337.25 638.681 336.451 639.125 335.475 639.125C334.499 639.125 333.7 639.48 333.7 640.013C333.7 640.456 332.546 640.9 331.038 640.9C329.617 640.9 328.375 641.255 328.375 641.788C328.375 642.231 326.423 642.675 323.938 642.675C321.541 642.675 319.5 643.03 319.5 643.563C319.5 644.095 315.684 644.45 309.738 644.45C303.791 644.45 299.975 644.095 299.975 643.563C299.975 643.03 298.378 642.675 296.425 642.675C294.473 642.675 292.875 642.231 292.875 641.788C292.875 641.255 292.076 640.9 291.1 640.9C290.124 640.9 289.325 640.456 289.325 640.013C289.325 639.48 288.526 639.125 287.55 639.125C286.574 639.125 285.775 638.681 285.775 638.238C285.775 637.705 284.976 637.35 284 637.35C283.024 637.35 282.225 636.906 282.225 636.462C282.225 635.93 281.426 635.575 280.45 635.575C279.474 635.575 278.675 635.131 278.675 634.688C278.675 634.155 277.078 633.8 275.125 633.8C273.173 633.8 271.575 634.155 271.575 634.688C271.575 635.131 270.421 635.575 268.912 635.575C267.492 635.575 266.25 635.93 266.25 636.462C266.25 636.906 265.451 637.35 264.475 637.35C263.499 637.35 262.7 637.705 262.7 638.238C262.7 638.681 260.747 639.125 258.262 639.125C255.866 639.125 253.825 639.48 253.825 640.013C253.825 640.456 252.227 640.9 250.275 640.9C248.322 640.9 246.725 641.255 246.725 641.788C246.725 642.231 244.772 642.675 242.287 642.675C239.891 642.675 237.85 643.03 237.85 643.563C237.85 644.095 235.187 644.45 231.637 644.45C228.087 644.45 225.425 644.805 225.425 645.338C225.425 645.87 221.609 646.225 215.662 646.225C209.716 646.225 205.9 646.58 205.9 647.113C205.9 647.645 200.575 648 191.7 648C182.825 648 177.5 647.645 177.5 647.113C177.5 646.58 173.95 646.225 168.625 646.225C163.3 646.225 159.75 645.87 159.75 645.338C159.75 644.805 157.354 644.45 154.425 644.45C151.496 644.45 149.1 644.095 149.1 643.563C149.1 643.03 147.946 642.675 146.437 642.675C145.017 642.675 143.775 642.231 143.775 641.788C143.775 641.255 142.621 640.9 141.112 640.9C139.692 640.9 138.45 640.456 138.45 640.013C138.45 639.48 137.651 639.125 136.675 639.125C135.699 639.125 134.9 638.681 134.9 638.238C134.9 637.705 134.101 637.35 133.125 637.35C132.149 637.35 131.35 636.906 131.35 636.462C131.35 635.93 130.551 635.575 129.575 635.575C128.599 635.575 127.8 635.131 127.8 634.688C127.8 634.155 127.179 633.8 126.38 633.8C125.581 633.8 123.806 632.646 122.475 631.137C121.144 629.717 119.546 628.475 119.014 628.475C117.594 628.475 106.5 617.204 106.5 615.784C106.5 615.162 105.701 614.097 104.725 613.388C103.749 612.678 102.95 611.524 102.95 610.725C102.95 609.926 102.151 608.773 101.175 608.063C100.199 607.352 99.4 606.11 99.4 605.222C99.4 604.335 99.045 603.625 98.5125 603.625C98.0687 603.625 97.6249 602.826 97.6249 601.85C97.6249 600.874 97.27 600.075 96.7375 600.075C96.2937 600.075 95.85 599.276 95.85 598.3C95.85 597.324 95.4949 596.525 94.9624 596.525C94.5187 596.525 94.075 595.282 94.075 593.863C94.075 592.354 93.72 591.2 93.1875 591.2C92.7437 591.2 92.2999 589.957 92.2999 588.537C92.2999 587.029 91.945 585.875 91.4125 585.875C90.9687 585.875 90.525 583.834 90.525 581.438C90.525 578.953 90.1699 577 89.6374 577C89.1049 577 88.75 571.675 88.75 562.8V548.6H72.775C62.7462 548.6 56.8 548.245 56.8 547.713C56.8 547.18 54.4037 546.825 51.475 546.825C48.5462 546.825 46.15 546.47 46.15 545.938C46.15 545.405 44.9962 545.05 43.4875 545.05C42.0675 545.05 40.825 544.606 40.825 544.162C40.825 543.63 40.0262 543.275 39.0499 543.275C38.0737 543.275 37.275 542.831 37.275 542.388C37.275 541.855 36.4762 541.5 35.5 541.5C34.5237 541.5 33.7249 541.056 33.7249 540.613C33.7249 540.08 32.9262 539.725 31.95 539.725C30.9737 539.725 30.175 539.281 30.175 538.838C30.175 538.305 29.465 537.95 28.5775 537.95C27.69 537.95 26.4474 537.151 25.7374 536.175C25.0274 535.199 23.9625 534.4 23.3412 534.4C21.9212 534.4 14.2 526.856 14.2 525.436C14.2 524.904 13.0462 523.306 11.5375 521.975C10.1175 520.644 8.87499 518.869 8.87499 518.07C8.87499 517.271 8.51996 516.65 7.98746 516.65C7.54371 516.65 7.09997 515.851 7.09997 514.875C7.09997 513.899 6.74503 513.1 6.21253 513.1C5.76878 513.1 5.325 511.857 5.325 510.437C5.325 508.929 4.97001 507.775 4.43751 507.775C3.99376 507.775 3.55003 506.532 3.55003 505.112C3.55003 503.604 3.195 502.45 2.6625 502.45C2.21875 502.45 1.77501 500.853 1.77501 498.9C1.77501 496.948 1.42003 495.35 0.887527 495.35C0.266277 495.35 0 452.129 0 367.55C0 282.971 0.266277 239.75 0.887527 239.75C1.42003 239.75 1.77501 238.152 1.77501 236.2C1.77501 234.247 2.21875 232.65 2.6625 232.65C3.195 232.65 3.55003 231.053 3.55003 229.1C3.55003 227.148 3.99376 225.55 4.43751 225.55C4.97001 225.55 5.325 224.307 5.325 222.887C5.325 221.379 5.76878 220.225 6.21253 220.225C6.74503 220.225 7.09997 219.426 7.09997 218.45C7.09997 217.474 7.54371 216.675 7.98746 216.675C8.51996 216.675 8.87499 215.876 8.87499 214.9C8.87499 213.924 9.31868 213.125 9.76243 213.125C10.2949 213.125 10.65 212.415 10.65 211.528C10.65 210.64 11.4487 209.398 12.4249 208.688C13.4012 207.978 14.2 206.824 14.2 206.202C14.2 205.492 15.4425 203.806 16.8625 202.475C18.3712 201.144 19.525 199.546 19.525 199.014C19.525 197.683 28.9325 188.275 30.2637 188.275C30.7962 188.275 32.7487 186.678 34.6125 184.725C36.4762 182.773 38.5174 181.175 39.0499 181.175C39.5824 181.175 41.6237 179.577 43.4875 177.625C45.3512 175.672 47.57 174.075 48.28 174.075C49.0787 174.075 49.6999 173.365 49.6999 172.3C49.6999 171.235 50.3212 170.525 51.12 170.525C51.9187 170.525 53.6937 169.283 55.0249 167.863C56.3562 166.354 57.9537 165.2 58.575 165.2C59.1075 165.2 61.5037 163.159 63.9 160.763C66.2962 158.278 68.6925 156.325 69.225 156.325C69.7575 156.325 72.1537 154.284 74.55 151.888C76.9462 149.403 79.3425 147.45 79.875 147.45C80.4075 147.45 82.4487 145.853 84.3124 143.9C86.1762 141.948 88.2175 140.35 88.75 140.35C89.2825 140.35 91.6787 138.309 94.075 135.913C96.4712 133.428 98.8675 131.475 99.4 131.475C99.9325 131.475 101.974 129.878 103.837 127.925C105.701 125.973 107.743 124.375 108.275 124.375C108.808 124.375 111.204 122.334 113.6 119.938C115.996 117.453 118.393 115.5 118.925 115.5C119.458 115.5 121.499 113.903 123.362 111.95C125.226 109.998 127.267 108.4 127.8 108.4C128.332 108.4 130.374 106.803 132.238 104.85C134.101 102.898 136.142 101.3 136.675 101.3C137.207 101.3 139.604 99.2588 142 96.8625C144.396 94.3775 146.792 92.425 147.325 92.425C147.857 92.425 150.254 90.3838 152.65 87.9875C155.046 85.5025 157.442 83.55 157.975 83.55C158.507 83.55 160.904 81.5087 163.3 79.1125C165.696 76.6275 168.092 74.675 168.625 74.675C169.246 74.675 170.844 73.4325 172.175 72.0125C173.506 70.5038 175.104 69.35 175.725 69.35C176.257 69.35 178.654 67.3088 181.05 64.9125C183.446 62.4275 185.842 60.475 186.375 60.475C186.907 60.475 189.304 58.4338 191.7 56.0375C194.096 53.5525 196.492 51.6 197.025 51.6C197.557 51.6 199.954 49.5587 202.35 47.1625C204.746 44.6775 207.142 42.725 207.675 42.725C208.207 42.725 210.249 41.1275 212.113 39.175C213.976 37.2225 216.018 35.625 216.55 35.625C217.083 35.625 219.479 33.5837 221.875 31.1875C224.271 28.7025 226.667 26.75 227.2 26.75C227.732 26.75 229.774 25.1525 231.637 23.2C233.501 21.2475 235.543 19.65 236.075 19.65C236.696 19.65 238.294 18.4075 239.625 16.9875C240.956 15.4788 242.642 14.325 243.352 14.325C243.974 14.325 245.128 13.5262 245.837 12.55C246.548 11.5737 247.79 10.775 248.677 10.775C249.565 10.775 250.275 10.3312 250.275 9.88747C250.275 9.35497 251.074 9.00003 252.05 9.00003C253.026 9.00003 253.825 8.55625 253.825 8.1125C253.825 7.58 254.624 7.22497 255.6 7.22497C256.576 7.22497 257.375 6.78128 257.375 6.33753C257.375 5.80503 258.618 5.45 260.038 5.45C261.546 5.45 262.7 5.00622 262.7 4.56247C262.7 4.02997 263.499 3.67503 264.475 3.67503C265.451 3.67503 266.25 3.23125 266.25 2.7875C266.25 2.255 267.848 1.89997 269.8 1.89997C271.753 1.89997 273.35 1.45628 273.35 1.01253C273.35 0.480027 277.166 0.125 283.112 0.125C289.059 0.125 292.875 0.480027 292.875 1.01253ZM213.001 375.538C213.001 375.982 211.403 376.425 209.451 376.425C207.498 376.425 205.901 376.78 205.901 377.313C205.901 377.757 204.747 378.2 203.238 378.2C201.818 378.2 200.576 378.555 200.576 379.088C200.576 379.532 199.422 379.975 197.913 379.975C196.493 379.975 195.251 380.33 195.251 380.863C195.251 381.307 194.452 381.75 193.476 381.75C192.499 381.75 191.701 382.105 191.701 382.638C191.701 383.082 190.991 383.525 190.103 383.525C189.216 383.525 187.973 384.324 187.263 385.3C186.553 386.277 185.311 387.075 184.423 387.075C183.536 387.075 182.826 387.43 182.826 387.963C182.826 388.407 182.116 388.85 181.228 388.85C180.341 388.85 179.098 389.649 178.388 390.625C177.678 391.602 176.613 392.4 175.992 392.4C174.306 392.4 156.201 410.772 156.201 412.369C156.201 413.079 155.846 413.7 155.313 413.7C154.869 413.7 154.426 414.499 154.426 415.475C154.426 416.452 154.071 417.25 153.538 417.25C153.094 417.25 152.651 417.96 152.651 418.848C152.651 419.735 151.852 420.978 150.876 421.688C149.899 422.398 149.101 423.64 149.101 424.528C149.101 425.415 148.746 426.125 148.213 426.125C147.769 426.125 147.326 427.279 147.326 428.788C147.326 430.208 146.971 431.45 146.438 431.45C145.994 431.45 145.551 432.249 145.551 433.225C145.551 434.202 145.196 435 144.663 435C144.219 435 143.776 435.799 143.776 436.775C143.776 437.752 143.421 438.55 142.888 438.55C142.444 438.55 142.001 440.148 142.001 442.1C142.001 444.053 141.646 445.65 141.113 445.65C140.669 445.65 140.226 446.804 140.226 448.313C140.226 449.733 139.871 450.975 139.338 450.975C138.894 450.975 138.451 452.573 138.451 454.525C138.451 456.478 138.096 458.075 137.563 458.075C137.119 458.075 136.676 459.673 136.676 461.625C136.676 463.578 136.321 465.175 135.788 465.175C135.344 465.175 134.901 467.128 134.901 469.613C134.901 472.009 134.546 474.05 134.013 474.05C133.481 474.05 133.126 476.447 133.126 479.375C133.126 482.304 132.771 484.7 132.238 484.7C131.706 484.7 131.351 487.629 131.351 491.8C131.351 495.972 130.996 498.9 130.463 498.9C129.931 498.9 129.576 501.297 129.576 504.225V509.55H149.988C163.034 509.55 170.401 509.195 170.401 508.663C170.401 508.13 172.797 507.775 175.726 507.775C178.654 507.775 181.051 507.42 181.051 506.888C181.051 506.355 183.447 506 186.376 506C189.304 506 191.701 505.645 191.701 505.113C191.701 504.58 193.298 504.225 195.251 504.225C197.203 504.225 198.801 503.782 198.801 503.338C198.801 502.805 200.398 502.45 202.351 502.45C204.303 502.45 205.901 502.007 205.901 501.563C205.901 501.03 207.498 500.675 209.451 500.675C211.403 500.675 213.001 500.232 213.001 499.788C213.001 499.255 214.598 498.9 216.551 498.9C218.503 498.9 220.101 498.457 220.101 498.013C220.101 497.48 221.698 497.125 223.651 497.125C225.603 497.125 227.201 496.682 227.201 496.238C227.201 495.705 227.999 495.35 228.976 495.35C229.952 495.35 230.751 494.907 230.751 494.463C230.751 493.93 231.993 493.575 233.413 493.575C234.922 493.575 236.076 493.132 236.076 492.688C236.076 492.155 237.318 491.8 238.738 491.8C240.247 491.8 241.401 491.357 241.401 490.913C241.401 490.38 242.199 490.025 243.176 490.025C244.152 490.025 244.951 489.582 244.951 489.138C244.951 488.605 245.749 488.25 246.726 488.25C247.702 488.25 248.501 487.807 248.501 487.363C248.501 486.83 249.654 486.475 250.986 486.475C252.406 486.475 254.003 485.765 254.713 484.7C255.423 483.724 256.666 482.925 257.553 482.925C258.441 482.925 259.151 482.482 259.151 482.038C259.151 481.505 259.772 481.15 260.571 481.15C261.281 481.15 263.854 479.109 266.251 476.713C268.647 474.228 271.043 472.275 271.576 472.275C272.907 472.275 276.901 468.193 276.901 466.773C276.901 466.063 277.699 464.998 278.676 464.288C279.652 463.578 280.451 462.335 280.451 461.448C280.451 460.56 280.895 459.85 281.338 459.85C281.871 459.85 282.226 459.052 282.226 458.075C282.226 457.099 282.669 456.3 283.113 456.3C283.646 456.3 284.001 455.502 284.001 454.525C284.001 453.549 284.444 452.75 284.888 452.75C285.421 452.75 285.776 450.709 285.776 448.313C285.776 445.828 286.219 443.875 286.663 443.875C287.196 443.875 287.551 440.059 287.551 434.113C287.551 428.167 287.196 424.35 286.663 424.35C286.219 424.35 285.776 423.552 285.776 422.575C285.776 421.599 285.421 420.8 284.888 420.8C284.444 420.8 284.001 419.558 284.001 418.138C284.001 416.629 283.646 415.475 283.113 415.475C282.669 415.475 282.226 414.233 282.226 412.813C282.226 411.304 281.871 410.15 281.338 410.15C280.895 410.15 280.451 409.352 280.451 408.375C280.451 407.399 280.096 406.6 279.563 406.6C279.119 406.6 278.676 405.89 278.676 405.003C278.676 404.115 277.877 402.873 276.901 402.163C275.924 401.453 275.126 400.388 275.126 399.767C275.126 398.08 262.168 385.3 260.482 385.3C259.772 385.3 259.151 384.857 259.151 384.413C259.151 383.88 258.352 383.525 257.376 383.525C256.399 383.525 255.601 383.082 255.601 382.638C255.601 382.105 254.802 381.75 253.826 381.75C252.849 381.75 252.051 381.307 252.051 380.863C252.051 380.33 250.453 379.975 248.501 379.975C246.548 379.975 244.951 379.532 244.951 379.088C244.951 378.555 243.797 378.2 242.288 378.2C240.868 378.2 239.626 377.757 239.626 377.313C239.626 376.78 236.963 376.425 233.413 376.425C229.863 376.425 227.201 376.07 227.201 375.538C227.201 375.005 224.272 374.65 220.101 374.65C215.929 374.65 213.001 375.005 213.001 375.538ZM305.744 569.9C307.43 569.9 308.85 569.456 308.85 569.012C308.85 568.48 310.093 568.125 311.513 568.125C313.021 568.125 314.175 568.48 314.175 569.012C314.175 569.456 315.418 569.9 316.838 569.9C318.346 569.9 319.5 570.255 319.5 570.787C319.5 571.231 320.121 571.675 320.92 571.675C322.606 571.675 324.825 573.805 324.825 575.402C324.825 576.112 325.624 577.177 326.6 577.887C327.665 578.597 328.375 580.195 328.375 581.615C328.375 582.946 328.819 584.1 329.263 584.1C329.795 584.1 330.15 586.052 330.15 588.537C330.15 590.933 329.795 592.975 329.263 592.975C328.819 592.975 328.375 593.596 328.375 594.306C328.375 595.105 326.156 597.856 323.494 600.519L318.613 605.4H311.069C306.631 605.4 303.525 605.045 303.525 604.512C303.525 603.98 302.904 603.625 302.194 603.625C301.395 603.625 299.443 602.205 297.756 600.519C296.07 598.832 294.65 596.88 294.65 596.081C294.65 595.371 294.295 594.75 293.763 594.75C293.23 594.75 292.875 591.821 292.875 587.65C292.875 583.478 293.23 580.55 293.763 580.55C294.295 580.55 294.65 579.928 294.65 579.218C294.65 578.42 296.425 576.023 298.644 573.894C301.839 570.699 303.17 569.9 305.744 569.9Z" fill="#0050C3"/>
</svg>
