<svg width="854" height="974" viewBox="0 0 854 974" fill="none" xmlns="http://www.w3.org/2000/svg">
<path fill-rule="evenodd" clip-rule="evenodd" d="M440 1.33337C440 2.00004 442.4 2.66663 445.333 2.66663C448.267 2.66663 450.667 3.2 450.667 4C450.667 4.66667 452.533 5.33337 454.667 5.33337C456.933 5.33337 458.667 5.86663 458.667 6.66663C458.667 7.33329 459.867 8 461.333 8C462.8 8 464 8.53337 464 9.33337C464 10 465.067 10.6666 466.4 10.6666C467.733 10.6666 469.6 11.8667 470.667 13.3334C471.733 14.8 473.467 16 474.667 16C475.867 16 477.6 17.2 478.667 18.6666C479.733 20.1333 481.467 21.3334 482.4 21.3334C483.467 21.3334 486 23.0667 488 25.3334C490 27.4667 492.4 29.3334 493.333 29.3334C494.267 29.3334 496.667 31.0667 498.667 33.3334C500.667 35.4667 503.067 37.3334 504 37.3334C504.933 37.3334 507.333 39.0667 509.333 41.3334C511.333 43.4667 513.733 45.3334 514.667 45.3334C515.6 45.3334 518 47.0667 520 49.3334C522 51.4667 524.4 53.3334 525.333 53.3334C526.267 53.3334 528.667 55.0667 530.667 57.3334C532.667 59.4667 535.067 61.3334 536 61.3334C536.933 61.3334 539.333 63.0667 541.333 65.3334C543.333 67.4667 546 69.3334 547.2 69.3334C549.067 69.3334 549.333 66.5333 549.333 46.6666V24H640H730.667V112.667V201.333L772 242.667C794.8 265.333 813.333 284.667 813.333 285.467C813.333 286.133 816.4 289.733 820 293.333C823.733 296.933 826.667 300.667 826.667 301.6C826.667 302.667 827.867 304.267 829.333 305.333C830.8 306.4 832 308.133 832 309.333C832 310.533 833.2 312.267 834.667 313.333C836.133 314.4 837.333 316.267 837.333 317.6C837.333 318.933 838 320 838.667 320C839.467 320 840 321.2 840 322.667C840 324.133 840.667 325.333 841.333 325.333C842.133 325.333 842.667 327.067 842.667 329.333C842.667 331.467 843.333 333.333 844 333.333C844.8 333.333 845.333 334.533 845.333 336C845.333 337.467 846 338.667 846.667 338.667C847.467 338.667 848 341.067 848 344C848 346.933 848.667 349.333 849.333 349.333C850.133 349.333 850.667 351.733 850.667 354.667C850.667 357.6 851.333 360 852 360C852.933 360 853.333 425.733 853.333 554.667C853.333 683.6 852.933 749.333 852 749.333C851.333 749.333 850.667 751.067 850.667 753.333C850.667 755.467 850.133 757.333 849.333 757.333C848.667 757.333 848 759.067 848 761.333C848 763.467 847.467 765.333 846.667 765.333C846 765.333 845.333 766.533 845.333 768C845.333 769.467 844.8 770.667 844 770.667C843.333 770.667 842.667 771.867 842.667 773.333C842.667 774.8 842.133 776 841.333 776C840.667 776 840 776.933 840 778.133C840 779.333 838.267 782 836 784C833.867 786 832 788.4 832 789.2C832 791.2 825.867 797.333 823.867 797.333C823.067 797.333 820.667 799.067 818.667 801.333C816.667 803.467 814 805.333 812.8 805.333C811.6 805.333 810.667 805.867 810.667 806.667C810.667 807.333 809.467 808 808 808C806.533 808 805.333 808.533 805.333 809.333C805.333 810 804.267 810.667 802.933 810.667C801.6 810.667 799.733 811.867 798.667 813.333C797.6 814.933 795.2 816 793.067 816C791.067 816 789.333 816.533 789.333 817.333C789.333 818 786.933 818.667 784 818.667C781.067 818.667 778.667 819.2 778.667 820C778.667 820.933 752.133 821.333 701.6 821.333H701.595C626.133 821.333 624.533 821.333 622.667 818.667C621.6 817.2 620 816 618.933 816C616.533 816 613.333 812.667 613.333 810.133C613.333 808.933 612.8 808 612 808C611.333 808 610.667 806.8 610.667 805.333C610.667 803.867 610.133 802.667 609.333 802.667C608.533 802.667 608 798.267 608 792C608 785.733 608.533 781.333 609.333 781.333C610.133 781.333 610.667 780.4 610.667 779.333C610.667 775.867 622.133 765.333 626 765.333C627.867 765.333 629.333 764.667 629.333 764C629.333 763.067 653.733 762.667 700 762.667C746.267 762.667 770.667 762.267 770.667 761.333C770.667 760.533 771.867 760 773.333 760C774.8 760 776 759.333 776 758.667C776 757.867 776.933 757.333 778 757.333C781.467 757.333 792 745.867 792 742C792 740.133 792.667 738.667 793.333 738.667C794.267 738.667 794.667 676.933 794.667 556C794.667 435.067 794.267 373.333 793.333 373.333C792.667 373.333 792 370.267 792 366.667C792 362.933 791.467 360 790.667 360C790 360 789.333 358.133 789.333 356C789.333 353.733 788.8 352 788 352C787.333 352 786.667 350.933 786.667 349.6C786.667 348.267 785.467 346.4 784 345.333C782.533 344.267 781.333 342.4 781.333 341.067C781.333 339.733 780.8 338.667 780 338.667C779.333 338.667 778.667 337.733 778.667 336.667C778.667 335.467 769.067 325.067 757.333 313.333C745.6 301.6 736 291.2 736 290C736 288.933 735.067 288 734 288C732.8 288 729.867 285.867 727.333 283.333C724.8 280.8 722.667 277.867 722.667 276.667C722.667 275.6 721.467 274.667 720 274.667C718.533 274.667 717.333 273.733 717.333 272.667C717.333 271.467 707.2 260.4 694.667 248L672 225.333V155.333V85.3334H640H608V134.667C608 166.667 607.467 184 606.667 184C606 184 605.333 183.333 605.333 182.667C605.333 181.867 604.267 181.333 602.933 181.333C601.6 181.333 599.733 180.133 598.667 178.667C597.6 177.2 595.867 176 594.933 176C593.867 176 591.333 174.133 589.333 172C587.333 169.733 584.667 168 583.467 168C582.267 168 581.333 167.333 581.333 166.667C581.333 165.867 580.4 165.333 579.2 165.333C578 165.333 575.333 163.467 573.333 161.333C571.333 159.067 568.8 157.333 567.733 157.333C566.8 157.333 565.067 156.133 564 154.667C562.933 153.2 561.2 152 560 152C558.8 152 557.067 150.8 556 149.333C554.933 147.867 553.2 146.667 552 146.667C550.8 146.667 549.067 145.467 548 144C546.933 142.533 545.2 141.333 544 141.333C542.8 141.333 541.067 140.133 540 138.667C538.933 137.2 537.2 136 536.267 136C535.2 136 532.667 134.133 530.667 132C528.667 129.733 526.267 128 525.333 128C524.4 128 522 126.133 520 124C518 121.733 515.6 120 514.667 120C513.733 120 511.333 118.133 509.333 116C507.333 113.733 504.933 112 504 112C503.067 112 500.667 110.133 498.667 108C496.667 105.733 494.267 104 493.333 104C492.533 104 489.467 101.6 486.667 98.6666C483.867 95.7333 480.667 93.3334 479.733 93.3334C478.8 93.3334 477.067 92.1333 476 90.6666C474.933 89.2 473.2 88 472.267 88C471.2 88 468.667 86.1333 466.667 84C464.667 81.7333 462 80 460.8 80C459.6 80 458.667 78.9334 458.667 77.3334C458.667 75.7334 457.733 74.6666 456.533 74.6666C455.333 74.6666 452.667 72.8 450.667 70.6666C448.667 68.4 446.133 66.6666 445.067 66.6666C444.133 66.6666 442.4 65.4667 441.333 64C440.267 62.4 437.867 61.3334 435.733 61.3334C433.733 61.3334 432 60.6667 432 60C432 59.2 429.067 58.6666 425.333 58.6666C421.733 58.6666 418.667 59.2 418.667 60C418.667 60.6667 416.933 61.3334 414.667 61.3334C412.533 61.3334 410.667 61.8666 410.667 62.6666C410.667 63.3333 409.6 64 408.267 64C406.933 64 405.067 65.2 404 66.6666C402.933 68.1333 401.333 69.3334 400.267 69.3334C399.333 69.3334 395.6 72.2667 392 76C388.4 79.6 384.8 82.6666 384 82.6666C383.2 82.6666 380.133 85.0667 377.333 88C374.533 90.9333 371.467 93.3334 370.667 93.3334C369.867 93.3334 366.8 95.7333 364 98.6666C361.2 101.6 358.133 104 357.333 104C356.533 104 352.933 106.933 349.333 110.667C345.733 114.267 342.133 117.333 341.333 117.333C340.533 117.333 337.467 119.733 334.667 122.667C331.867 125.6 328.8 128 328 128C327.2 128 323.6 130.933 320 134.667C316.4 138.267 312.8 141.333 312 141.333C311.2 141.333 307.6 144.267 304 148C300.4 151.6 296.8 154.667 296 154.667C295.2 154.667 292.133 157.067 289.333 160C286.533 162.933 283.467 165.333 282.667 165.333C281.867 165.333 278.8 167.733 276 170.667C273.2 173.6 270.133 176 269.333 176C268.533 176 264.933 178.933 261.333 182.667C257.733 186.267 254.133 189.333 253.333 189.333C252.533 189.333 248.933 192.267 245.333 196C241.733 199.6 238.133 202.667 237.333 202.667C236.4 202.667 234 204.4 232 206.667C230 208.8 227.6 210.667 226.667 210.667C225.867 210.667 222.267 213.6 218.667 217.333C215.067 220.933 211.467 224 210.667 224C209.867 224 206.267 226.933 202.667 230.667C199.067 234.267 195.467 237.333 194.667 237.333C193.867 237.333 190.267 240.267 186.667 244C183.067 247.6 179.467 250.667 178.667 250.667C177.867 250.667 174.267 253.6 170.667 257.333C167.067 260.933 163.467 264 162.667 264C161.867 264 158.8 266.4 156 269.333C153.2 272.267 150.133 274.667 149.333 274.667C148.533 274.667 144.933 277.6 141.333 281.333C137.733 284.933 134.133 288 133.333 288C132.4 288 130 289.733 128 292C126 294.133 123.6 296 122.667 296C121.867 296 118.267 298.933 114.667 302.667C111.067 306.267 107.467 309.333 106.667 309.333C105.867 309.333 102.267 312.267 98.6666 316C95.0666 319.6 91.4666 322.667 90.6666 322.667C88.6666 322.667 71.9999 339.6 71.9999 341.733C71.9999 342.667 70.8 344.267 69.3333 345.333C67.8666 346.4 66.6666 348.267 66.6666 349.6C66.6666 350.933 66.1333 352 65.3333 352C64.6666 352 63.9999 353.733 63.9999 356C63.9999 358.133 63.4666 360 62.6666 360C61.9999 360 61.3333 362.933 61.3333 366.667C61.3333 370.267 60.7999 373.333 59.9999 373.333C59.0666 373.333 58.6666 425.333 58.6666 526.667C58.6666 628 59.0666 680 59.9999 680C60.7999 680 61.3333 691.6 61.3333 712C61.3333 732.4 61.8666 744 62.6666 744C63.4666 744 63.9999 744.933 63.9999 746C63.9999 747.2 66.6666 750.8 69.9999 754C73.1999 757.333 76.7999 760 77.9999 760C79.0666 760 79.9999 760.533 79.9999 761.333C79.9999 762 82.4 762.667 85.2 762.667C88.1333 762.667 90.7999 763.333 91.0666 764.267C91.5999 765.6 92.1333 765.467 93.3333 764C94.5333 762.533 95.0666 762.4 95.5999 763.6C95.9999 764.933 101.467 765.333 116.133 765.333H136V753.333C136 746.267 136.533 741.333 137.333 741.333C138.133 741.333 138.667 737.333 138.667 732C138.667 726.667 139.2 722.667 140 722.667C140.8 722.667 141.333 718.667 141.333 713.333C141.333 708 141.867 704 142.667 704C143.467 704 144 700.933 144 697.333C144 693.6 144.667 690.667 145.333 690.667C146.133 690.667 146.667 688.267 146.667 685.333C146.667 682.4 147.333 680 148 680C148.8 680 149.333 676.933 149.333 673.333C149.333 669.6 150 666.667 150.667 666.667C151.467 666.667 152 664.8 152 662.667C152 660.4 152.667 658.667 153.333 658.667C154.133 658.667 154.667 656.8 154.667 654.667C154.667 652.4 155.333 650.667 156 650.667C156.8 650.667 157.333 648.8 157.333 646.667C157.333 644.4 158 642.667 158.667 642.667C159.467 642.667 160 640.267 160 637.333C160 634.4 160.667 632 161.333 632C162.133 632 162.667 630.8 162.667 629.333C162.667 627.867 163.333 626.667 164 626.667C164.8 626.667 165.333 625.467 165.333 624C165.333 622.533 166 621.333 166.667 621.333C167.467 621.333 168 620.133 168 618.667C168 617.2 168.667 616 169.333 616C170.133 616 170.667 614.133 170.667 612C170.667 609.733 171.333 608 172 608C172.8 608 173.333 606.933 173.333 605.6C173.333 604.267 174.533 602.4 176 601.333C177.467 600.267 178.667 598.4 178.667 597.067C178.667 595.733 179.333 594.667 180 594.667C180.8 594.667 181.333 593.6 181.333 592.267C181.333 590.933 182.533 589.067 184 588C185.467 586.933 186.667 585.2 186.667 584.267C186.667 583.2 188.533 580.667 190.667 578.667C192.933 576.667 194.667 574.267 194.667 573.467C194.667 571.467 219.467 546.667 221.467 546.667C222.267 546.667 224.667 544.8 226.667 542.667C228.667 540.4 231.2 538.667 232.267 538.667C233.2 538.667 234.933 537.467 236 536C237.067 534.533 238.8 533.333 240 533.333C241.2 533.333 242.933 532.133 244 530.667C245.067 529.2 246.933 528 248.267 528C249.6 528 250.667 527.333 250.667 526.667C250.667 525.867 251.867 525.333 253.333 525.333C254.8 525.333 256 524.667 256 524C256 523.2 257.2 522.667 258.667 522.667C260.133 522.667 261.333 522 261.333 521.333C261.333 520.533 262.533 520 264 520C265.467 520 266.667 519.333 266.667 518.667C266.667 517.867 268.533 517.333 270.667 517.333C272.933 517.333 274.667 516.667 274.667 516C274.667 515.2 275.867 514.667 277.333 514.667C278.8 514.667 280 514 280 513.333C280 512.533 281.867 512 284 512C286.267 512 288 511.333 288 510.667C288 509.867 290.4 509.333 293.333 509.333C296.267 509.333 298.667 508.667 298.667 508C298.667 507.2 301.733 506.667 305.333 506.667C309.067 506.667 312 506 312 505.333C312 504.533 319.6 504 332 504C344.4 504 352 504.533 352 505.333C352 506.133 355.6 506.667 360 506.667C364.4 506.667 368 507.2 368 508C368 508.667 370.4 509.333 373.333 509.333C376.267 509.333 378.667 509.867 378.667 510.667C378.667 511.333 381.067 512 384 512C386.933 512 389.333 512.533 389.333 513.333C389.333 514 391.2 514.667 393.333 514.667C395.6 514.667 397.333 515.2 397.333 516C397.333 516.667 398.533 517.333 400 517.333C401.467 517.333 402.667 517.867 402.667 518.667C402.667 519.333 404.533 520 406.667 520C408.933 520 410.667 520.533 410.667 521.333C410.667 522 411.867 522.667 413.333 522.667C414.8 522.667 416 523.2 416 524C416 524.667 417.067 525.333 418.4 525.333C419.733 525.333 421.6 526.533 422.667 528C423.733 529.467 425.467 530.667 426.667 530.667C427.867 530.667 429.6 531.867 430.667 533.333C431.733 534.8 433.6 536 434.933 536C436.4 536 437.333 536.933 437.333 538.667C437.333 540.133 438.267 541.333 439.333 541.333C441.733 541.333 453.333 552.533 453.333 554.8C453.333 555.6 455.733 558.533 458.667 561.333C461.6 564.133 464 567.467 464 568.533C464 569.733 464.667 570.667 465.333 570.667C466.133 570.667 466.667 571.733 466.667 573.067C466.667 574.4 467.867 576.267 469.333 577.333C470.933 578.4 472 580.8 472 582.933C472 584.933 472.667 586.667 473.333 586.667C474.133 586.667 474.667 587.867 474.667 589.333C474.667 590.8 475.333 592 476 592C476.8 592 477.333 593.2 477.333 594.667C477.333 596.133 478 597.333 478.667 597.333C479.467 597.333 480 599.067 480 601.333C480 603.467 480.667 605.333 481.333 605.333C482.133 605.333 482.667 606.533 482.667 608C482.667 609.467 483.333 610.667 484 610.667C484.8 610.667 485.333 612.4 485.333 614.667C485.333 616.8 486 618.667 486.667 618.667C487.467 618.667 488 621.067 488 624C488 626.933 488.667 629.333 489.333 629.333C490.133 629.333 490.667 637.333 490.667 650.667C490.667 664 490.133 672 489.333 672C488.533 672 488 675.6 488 680C488 684.4 487.467 688 486.667 688C486 688 485.333 689.733 485.333 692C485.333 694.133 484.8 696 484 696C483.333 696 482.667 697.2 482.667 698.667C482.667 700.133 482.133 701.333 481.333 701.333C480.667 701.333 480 703.733 480 706.667C480 709.6 479.467 712 478.667 712C478 712 477.333 713.067 477.333 714.4C477.333 715.733 476.133 717.6 474.667 718.667C473.2 719.733 472 721.6 472 722.933C472 724.267 471.467 725.333 470.667 725.333C470 725.333 469.333 726.267 469.333 727.467C469.333 728.667 467.6 731.333 465.333 733.333C463.2 735.333 461.333 737.733 461.333 738.533C461.333 740.667 436.4 765.333 434.267 765.333C433.333 765.333 431.733 766.533 430.667 768C429.6 769.467 427.867 770.667 426.667 770.667C425.467 770.667 423.733 771.867 422.667 773.333C421.6 774.8 419.733 776 418.4 776C417.067 776 416 776.533 416 777.333C416 778 414.933 778.667 413.6 778.667C412.267 778.667 410.4 779.867 409.333 781.333C408.267 782.933 405.867 784 403.733 784C401.733 784 400 784.533 400 785.333C400 786 398.8 786.667 397.333 786.667C395.867 786.667 394.667 787.2 394.667 788C394.667 788.667 393.467 789.333 392 789.333C390.533 789.333 389.333 789.867 389.333 790.667C389.333 791.333 387.6 792 385.333 792C383.2 792 381.333 792.533 381.333 793.333C381.333 794 379.6 794.667 377.333 794.667C375.2 794.667 373.333 795.2 373.333 796C373.333 796.667 372.133 797.333 370.667 797.333C369.2 797.333 368 797.867 368 798.667C368 799.333 366.267 800 364 800C361.867 800 360 800.533 360 801.333C360 802 358.267 802.667 356 802.667C353.867 802.667 352 803.2 352 804C352 804.667 349.6 805.333 346.667 805.333C343.733 805.333 341.333 805.867 341.333 806.667C341.333 807.333 338.933 808 336 808C333.067 808 330.667 808.533 330.667 809.333C330.667 810 328.933 810.667 326.667 810.667C324.533 810.667 322.667 811.2 322.667 812C322.667 812.667 319.733 813.333 316 813.333C312.4 813.333 309.333 813.867 309.333 814.667C309.333 815.333 306.933 816 304 816C301.067 816 298.667 816.533 298.667 817.333C298.667 818.133 295.067 818.667 290.667 818.667C286.267 818.667 282.667 819.2 282.667 820C282.667 820.8 279.067 821.333 274.667 821.333C270.267 821.333 266.667 821.867 266.667 822.667C266.667 823.467 253.333 824 229.333 824H192V841.333C192 852 192.533 858.667 193.333 858.667C194.133 858.667 194.667 861.067 194.667 864C194.667 866.933 195.333 869.333 196 869.333C196.8 869.333 197.333 870.533 197.333 872C197.333 873.467 198 874.667 198.667 874.667C199.467 874.667 200 875.867 200 877.333C200 878.8 200.667 880 201.333 880C202.133 880 202.667 880.933 202.667 882C202.667 884.667 219.333 901.333 222 901.333C223.067 901.333 224 901.867 224 902.667C224 903.333 225.2 904 226.667 904C228.133 904 229.333 904.533 229.333 905.333C229.333 906 231.2 906.667 233.333 906.667C235.6 906.667 237.333 907.2 237.333 908C237.333 908.667 240.4 909.333 244 909.333C247.733 909.333 250.667 909.867 250.667 910.667C250.667 911.467 256 912 264 912C272 912 277.333 912.533 277.333 913.333C277.333 914.133 280.933 914.667 285.333 914.667C289.733 914.667 293.333 914.133 293.333 913.333C293.333 912.533 300.4 912 312 912C323.6 912 330.667 911.467 330.667 910.667C330.667 909.867 333.733 909.333 337.333 909.333C341.067 909.333 344 908.667 344 908C344 907.2 347.6 906.667 352 906.667C356.4 906.667 360 906.133 360 905.333C360 904.533 362.4 904 365.333 904C368.267 904 370.667 903.333 370.667 902.667C370.667 901.867 372.267 901.333 374.133 901.333C380.4 901.333 381.333 898.933 381.333 882.133C381.333 872.667 381.867 866.667 382.667 866.667C383.467 866.667 384 864.267 384 861.333C384 858.4 384.667 856 385.333 856C386.133 856 386.667 854.8 386.667 853.333C386.667 851.867 387.333 850.667 388 850.667C388.8 850.667 389.333 849.467 389.333 848C389.333 846.533 390 845.333 390.667 845.333C391.467 845.333 392 844.133 392 842.667C392 841.2 392.667 840 393.333 840C394.133 840 394.667 838.8 394.667 837.333C394.667 835.867 395.333 834.667 396 834.667C396.8 834.667 397.333 833.733 397.333 832.667C397.333 830.133 413.867 813.333 416.4 813.333C417.333 813.333 418.933 812.133 420 810.667C421.067 809.2 422.933 808 424.267 808C425.6 808 426.667 807.333 426.667 806.667C426.667 805.867 427.867 805.333 429.333 805.333C430.8 805.333 432 804.667 432 804C432 803.2 433.2 802.667 434.667 802.667C436.133 802.667 437.333 802 437.333 801.333C437.333 800.533 439.733 800 442.667 800C445.6 800 448 799.333 448 798.667C448 797.867 455.6 797.333 468 797.333C480.4 797.333 488 797.867 488 798.667C488 799.333 489.867 800 492 800C494.267 800 496 800.533 496 801.333C496 802 497.2 802.667 498.667 802.667C500.133 802.667 501.333 803.2 501.333 804C501.333 804.667 502.533 805.333 504 805.333C505.467 805.333 506.667 805.867 506.667 806.667C506.667 807.333 507.867 808 509.333 808C510.8 808 512 808.533 512 809.333C512 810 512.933 810.667 514 810.667C516.533 810.667 538.667 832.533 538.667 835.067C538.667 836 539.867 837.6 541.333 838.667C542.8 839.733 544 841.6 544 842.933C544 844.267 544.667 845.333 545.333 845.333C546.133 845.333 546.667 846.533 546.667 848C546.667 849.467 547.333 850.667 548 850.667C548.8 850.667 549.333 853.067 549.333 856C549.333 858.933 550 861.333 550.667 861.333C551.467 861.333 552 869.333 552 882.667C552 896 551.467 904 550.667 904C550 904 549.333 905.733 549.333 908C549.333 910.133 548.8 912 548 912C547.333 912 546.667 913.2 546.667 914.667C546.667 916.133 546.133 917.333 545.333 917.333C544.667 917.333 544 918.533 544 920C544 921.467 543.467 922.667 542.667 922.667C542 922.667 541.333 923.867 541.333 925.333C541.333 926.8 540.8 928 540 928C539.333 928 538.667 928.933 538.667 930C538.667 932.667 516.667 954.667 514 954.667C512.933 954.667 512 955.2 512 956C512 956.667 510.8 957.333 509.333 957.333C507.867 957.333 506.667 957.867 506.667 958.667C506.667 959.333 505.467 960 504 960C502.533 960 501.333 960.533 501.333 961.333C501.333 962 499.6 962.667 497.333 962.667C495.2 962.667 493.333 963.2 493.333 964C493.333 964.667 490.4 965.333 486.667 965.333C483.067 965.333 480 965.867 480 966.667C480 967.467 474.267 968 465.333 968C456.4 968 450.667 967.467 450.667 966.667C450.667 965.867 448.267 965.333 445.333 965.333C442.4 965.333 440 964.667 440 964C440 963.2 438.8 962.667 437.333 962.667C435.867 962.667 434.667 962 434.667 961.333C434.667 960.533 433.467 960 432 960C430.533 960 429.333 959.333 429.333 958.667C429.333 957.867 428.133 957.333 426.667 957.333C425.2 957.333 424 956.667 424 956C424 955.2 422.8 954.667 421.333 954.667C419.867 954.667 418.667 954 418.667 953.333C418.667 952.533 416.267 952 413.333 952C410.4 952 408 952.533 408 953.333C408 954 406.267 954.667 404 954.667C401.867 954.667 400 955.2 400 956C400 956.667 398.8 957.333 397.333 957.333C395.867 957.333 394.667 957.867 394.667 958.667C394.667 959.333 391.733 960 388 960C384.4 960 381.333 960.533 381.333 961.333C381.333 962 378.933 962.667 376 962.667C373.067 962.667 370.667 963.2 370.667 964C370.667 964.667 367.733 965.333 364 965.333C360.4 965.333 357.333 965.867 357.333 966.667C357.333 967.467 353.333 968 348 968C342.667 968 338.667 968.533 338.667 969.333C338.667 970.133 332.933 970.667 324 970.667C315.067 970.667 309.333 971.2 309.333 972C309.333 972.8 301.333 973.333 288 973.333C274.667 973.333 266.667 972.8 266.667 972C266.667 971.2 261.333 970.667 253.333 970.667C245.333 970.667 240 970.133 240 969.333C240 968.533 236.4 968 232 968C227.6 968 224 967.467 224 966.667C224 965.867 222.267 965.333 220 965.333C217.867 965.333 216 964.667 216 964C216 963.2 214.267 962.667 212 962.667C209.867 962.667 208 962 208 961.333C208 960.533 206.8 960 205.333 960C203.867 960 202.667 959.333 202.667 958.667C202.667 957.867 201.467 957.333 200 957.333C198.533 957.333 197.333 956.667 197.333 956C197.333 955.2 196.133 954.667 194.667 954.667C193.2 954.667 192 954 192 953.333C192 952.533 191.067 952 189.867 952C188.667 952 186 950.267 184 948C182 945.867 179.6 944 178.8 944C176.667 944 160 927.067 160 924.933C160 924 158.8 922.4 157.333 921.333C155.867 920.267 154.667 918.533 154.667 917.333C154.667 916.133 153.467 914.4 152 913.333C150.533 912.267 149.333 910.4 149.333 909.067C149.333 907.733 148.8 906.667 148 906.667C147.333 906.667 146.667 905.467 146.667 904C146.667 902.533 146.133 901.333 145.333 901.333C144.667 901.333 144 900.133 144 898.667C144 897.2 143.467 896 142.667 896C142 896 141.333 894.133 141.333 892C141.333 889.733 140.8 888 140 888C139.333 888 138.667 886.133 138.667 884C138.667 881.733 138.133 880 137.333 880C136.667 880 136 876.933 136 873.333C136 869.6 135.467 866.667 134.667 866.667C133.867 866.667 133.333 858.667 133.333 845.333V824H109.333C94.2666 824 85.3333 823.467 85.3333 822.667C85.3333 821.867 81.7333 821.333 77.3333 821.333C72.9333 821.333 69.3333 820.8 69.3333 820C69.3333 819.2 67.6 818.667 65.3333 818.667C63.2 818.667 61.3333 818 61.3333 817.333C61.3333 816.533 60.1332 816 58.6666 816C57.1999 816 55.9999 815.333 55.9999 814.667C55.9999 813.867 54.8 813.333 53.3333 813.333C51.8666 813.333 50.6666 812.667 50.6666 812C50.6666 811.2 49.4666 810.667 47.9999 810.667C46.5333 810.667 45.3333 810 45.3333 809.333C45.3333 808.533 44.2666 808 42.9333 808C41.6 808 39.7332 806.8 38.6666 805.333C37.5999 803.867 35.9999 802.667 35.0666 802.667C32.9333 802.667 21.3333 791.333 21.3333 789.2C21.3333 788.4 19.6 786 17.3333 784C15.2 782 13.3333 779.333 13.3333 778.133C13.3333 776.933 12.7999 776 11.9999 776C11.3333 776 10.6666 774.8 10.6666 773.333C10.6666 771.867 10.1334 770.667 9.33337 770.667C8.66671 770.667 8 768.8 8 766.667C8 764.4 7.46669 762.667 6.66669 762.667C6.00002 762.667 5.33337 760.8 5.33337 758.667C5.33337 756.4 4.8 754.667 4 754.667C3.33333 754.667 2.66669 752.267 2.66669 749.333C2.66669 746.4 2.13337 744 1.33337 744C0.400041 744 0 679.067 0 552C0 424.933 0.400041 360 1.33337 360C2.13337 360 2.66669 357.6 2.66669 354.667C2.66669 351.733 3.33333 349.333 4 349.333C4.8 349.333 5.33337 346.933 5.33337 344C5.33337 341.067 6.00002 338.667 6.66669 338.667C7.46669 338.667 8 336.8 8 334.667C8 332.4 8.66671 330.667 9.33337 330.667C10.1334 330.667 10.6666 329.467 10.6666 328C10.6666 326.533 11.3333 325.333 11.9999 325.333C12.7999 325.333 13.3333 324.133 13.3333 322.667C13.3333 321.2 13.9999 320 14.6666 320C15.4666 320 15.9999 318.933 15.9999 317.6C15.9999 316.267 17.1999 314.4 18.6666 313.333C20.1332 312.267 21.3333 310.533 21.3333 309.6C21.3333 308.533 23.2 306 25.3333 304C27.6 302 29.3333 299.6 29.3333 298.8C29.3333 296.8 43.4666 282.667 45.4666 282.667C46.2666 282.667 49.1999 280.267 51.9999 277.333C54.7999 274.4 57.8666 272 58.6666 272C59.4666 272 62.5333 269.6 65.3333 266.667C68.1333 263.733 71.4666 261.333 72.5333 261.333C73.7333 261.333 74.6666 260.267 74.6666 258.667C74.6666 257.067 75.6 256 76.8 256C78 256 80.6666 254.133 82.6666 252C84.6666 249.733 87.0666 248 87.9999 248C88.7999 248 92.3999 244.933 95.9999 241.333C99.5999 237.6 103.2 234.667 104 234.667C104.8 234.667 108.4 231.6 112 228C115.6 224.267 119.2 221.333 120 221.333C120.8 221.333 123.867 218.933 126.667 216C129.467 213.067 132.533 210.667 133.333 210.667C134.133 210.667 137.733 207.6 141.333 204C144.933 200.267 148.533 197.333 149.333 197.333C150.133 197.333 153.2 194.933 156 192C158.8 189.067 161.867 186.667 162.667 186.667C163.467 186.667 167.067 183.6 170.667 180C174.267 176.267 177.867 173.333 178.667 173.333C179.467 173.333 182.533 170.933 185.333 168C188.133 165.067 191.2 162.667 192 162.667C192.8 162.667 195.867 160.267 198.667 157.333C201.467 154.4 204.533 152 205.333 152C206.133 152 209.733 148.933 213.333 145.333C216.933 141.6 220.533 138.667 221.333 138.667C222.133 138.667 225.733 135.6 229.333 132C232.933 128.267 236.533 125.333 237.333 125.333C238.133 125.333 241.733 122.267 245.333 118.667C248.933 114.933 252.533 112 253.333 112C254.267 112 256.667 110.133 258.667 108C260.667 105.733 263.067 104 264 104C264.8 104 268.4 100.933 272 97.3334C275.6 93.6 279.2 90.6666 280 90.6666C280.8 90.6666 284.4 87.6 288 84C291.6 80.2667 295.2 77.3334 296 77.3334C296.8 77.3334 300.4 74.2666 304 70.6666C307.6 66.9333 311.2 64 312 64C312.8 64 315.867 61.6 318.667 58.6666C321.467 55.7333 324.533 53.3334 325.333 53.3334C326.133 53.3334 329.733 50.2666 333.333 46.6666C336.933 42.9333 340.533 40 341.333 40C342.133 40 345.2 37.6 348 34.6666C350.8 31.7333 353.867 29.3334 354.667 29.3334C355.6 29.3334 358 27.4667 360 25.3334C362 23.0667 364.533 21.3334 365.6 21.3334C366.533 21.3334 368.267 20.1333 369.333 18.6666C370.4 17.2 372.267 16 373.6 16C374.933 16 376 15.3333 376 14.6666C376 13.8666 377.2 13.3334 378.667 13.3334C380.133 13.3334 381.333 12.6667 381.333 12C381.333 11.2 382.533 10.6666 384 10.6666C385.467 10.6666 386.667 10 386.667 9.33337C386.667 8.53337 388.533 8 390.667 8C392.933 8 394.667 7.33329 394.667 6.66663C394.667 5.86663 395.867 5.33337 397.333 5.33337C398.8 5.33337 400 4.66667 400 4C400 3.2 402.4 2.66663 405.333 2.66663C408.267 2.66663 410.667 2.00004 410.667 1.33337C410.667 0.533374 416.4 0 425.333 0C434.267 0 440 0.533374 440 1.33337ZM320 564C320 564.667 317.6 565.333 314.667 565.333C311.734 565.333 309.334 565.867 309.334 566.667C309.334 567.333 307.6 568 305.334 568C303.2 568 301.334 568.533 301.334 569.333C301.334 570 299.6 570.667 297.334 570.667C295.2 570.667 293.334 571.2 293.334 572C293.334 572.667 292.134 573.333 290.667 573.333C289.2 573.333 288 573.867 288 574.667C288 575.333 286.934 576 285.6 576C284.267 576 282.4 577.2 281.334 578.667C280.267 580.133 278.4 581.333 277.067 581.333C275.734 581.333 274.667 581.867 274.667 582.667C274.667 583.333 273.6 584 272.267 584C270.934 584 269.067 585.2 268 586.667C266.934 588.133 265.334 589.333 264.4 589.333C261.867 589.333 234.667 616.933 234.667 619.333C234.667 620.4 234.134 621.333 233.334 621.333C232.667 621.333 232 622.533 232 624C232 625.467 231.467 626.667 230.667 626.667C230 626.667 229.334 627.733 229.334 629.067C229.334 630.4 228.134 632.267 226.667 633.333C225.2 634.4 224 636.267 224 637.6C224 638.933 223.467 640 222.667 640C222 640 221.334 641.733 221.334 644C221.334 646.133 220.8 648 220 648C219.334 648 218.667 649.2 218.667 650.667C218.667 652.133 218.134 653.333 217.334 653.333C216.667 653.333 216 654.533 216 656C216 657.467 215.467 658.667 214.667 658.667C214 658.667 213.334 661.067 213.334 664C213.334 666.933 212.8 669.333 212 669.333C211.334 669.333 210.667 671.067 210.667 673.333C210.667 675.467 210.134 677.333 209.334 677.333C208.667 677.333 208 679.733 208 682.667C208 685.6 207.467 688 206.667 688C206 688 205.334 690.4 205.334 693.333C205.334 696.267 204.8 698.667 204 698.667C203.334 698.667 202.667 701.6 202.667 705.333C202.667 708.933 202.134 712 201.334 712C200.534 712 200 715.6 200 720C200 724.4 199.467 728 198.667 728C197.867 728 197.334 732.4 197.334 738.667C197.334 744.933 196.8 749.333 196 749.333C195.2 749.333 194.667 752.933 194.667 757.333V765.333H225.334C244.934 765.333 256 764.8 256 764C256 763.2 259.6 762.667 264 762.667C268.4 762.667 272 762.133 272 761.333C272 760.533 275.6 760 280 760C284.4 760 288 759.467 288 758.667C288 757.867 290.4 757.333 293.334 757.333C296.267 757.333 298.667 756.667 298.667 756C298.667 755.2 301.067 754.667 304 754.667C306.934 754.667 309.334 754 309.334 753.333C309.334 752.533 311.734 752 314.667 752C317.6 752 320 751.333 320 750.667C320 749.867 322.4 749.333 325.334 749.333C328.267 749.333 330.667 748.667 330.667 748C330.667 747.2 333.067 746.667 336 746.667C338.934 746.667 341.334 746 341.334 745.333C341.334 744.533 342.534 744 344 744C345.467 744 346.667 743.333 346.667 742.667C346.667 741.867 348.534 741.333 350.667 741.333C352.934 741.333 354.667 740.667 354.667 740C354.667 739.2 356.534 738.667 358.667 738.667C360.934 738.667 362.667 738 362.667 737.333C362.667 736.533 363.867 736 365.334 736C366.8 736 368 735.333 368 734.667C368 733.867 369.2 733.333 370.667 733.333C372.134 733.333 373.334 732.667 373.334 732C373.334 731.2 375.067 730.667 377.067 730.667C379.2 730.667 381.6 729.6 382.667 728C383.734 726.533 385.6 725.333 386.934 725.333C388.267 725.333 389.334 724.667 389.334 724C389.334 723.2 390.267 722.667 391.467 722.667C392.534 722.667 396.4 719.6 400 716C403.6 712.267 407.2 709.333 408 709.333C410 709.333 416 703.2 416 701.067C416 700 417.2 698.4 418.667 697.333C420.134 696.267 421.334 694.4 421.334 693.067C421.334 691.733 422 690.667 422.667 690.667C423.467 690.667 424 689.467 424 688C424 686.533 424.667 685.333 425.334 685.333C426.134 685.333 426.667 684.133 426.667 682.667C426.667 681.2 427.334 680 428 680C428.8 680 429.334 676.933 429.334 673.333C429.334 669.6 430 666.667 430.667 666.667C431.467 666.667 432 660.933 432 652C432 643.067 431.467 637.333 430.667 637.333C430 637.333 429.334 636.133 429.334 634.667C429.334 633.2 428.8 632 428 632C427.334 632 426.667 630.133 426.667 628C426.667 625.733 426.134 624 425.334 624C424.667 624 424 622.133 424 620C424 617.733 423.467 616 422.667 616C422 616 421.334 614.8 421.334 613.333C421.334 611.867 420.8 610.667 420 610.667C419.334 610.667 418.667 609.6 418.667 608.267C418.667 606.933 417.467 605.067 416 604C414.534 602.933 413.334 601.333 413.334 600.4C413.334 597.867 393.867 578.667 391.334 578.667C390.267 578.667 389.334 578 389.334 577.333C389.334 576.533 388.134 576 386.667 576C385.2 576 384 575.333 384 574.667C384 573.867 382.8 573.333 381.334 573.333C379.867 573.333 378.667 572.667 378.667 572C378.667 571.2 376.267 570.667 373.334 570.667C370.4 570.667 368 570 368 569.333C368 568.533 366.267 568 364 568C361.867 568 360 567.333 360 566.667C360 565.867 356 565.333 350.667 565.333C345.334 565.333 341.334 564.8 341.334 564C341.334 563.2 336.934 562.667 330.667 562.667C324.4 562.667 320 563.2 320 564ZM459.333 856C461.867 856 464 855.333 464 854.667C464 853.867 465.867 853.333 468 853.333C470.267 853.333 472 853.867 472 854.667C472 855.333 473.867 856 476 856C478.267 856 480 856.533 480 857.333C480 858 480.933 858.667 482.133 858.667C484.667 858.667 488 861.867 488 864.267C488 865.333 489.2 866.933 490.667 868C492.267 869.067 493.333 871.467 493.333 873.6C493.333 875.6 494 877.333 494.667 877.333C495.467 877.333 496 880.267 496 884C496 887.6 495.467 890.667 494.667 890.667C494 890.667 493.333 891.6 493.333 892.667C493.333 893.867 490 898 486 902L478.667 909.333H467.333C460.667 909.333 456 908.8 456 908C456 907.2 455.067 906.667 454 906.667C452.8 906.667 449.867 904.533 447.333 902C444.8 899.467 442.667 896.533 442.667 895.333C442.667 894.267 442.133 893.333 441.333 893.333C440.533 893.333 440 888.933 440 882.667C440 876.4 440.533 872 441.333 872C442.133 872 442.667 871.067 442.667 870C442.667 868.8 445.333 865.2 448.667 862C453.467 857.2 455.467 856 459.333 856Z" fill="#093075"/>
</svg>
